<svg width="193" height="14" viewBox="0 0 193 14" fill="none" xmlns="http://www.w3.org/2000/svg">
<path d="M7.64941 6.91895C7.64941 7.61621 7.45117 8.14941 7.05469 8.51855C6.66276 8.88314 6.10677 9.06543 5.38672 9.06543C4.67122 9.06543 4.09701 8.82617 3.66406 8.34766C3.23568 7.86458 3.02148 7.20833 3.02148 6.37891V5.62695C3.02148 4.82487 3.23796 4.18457 3.6709 3.70605C4.1084 3.22298 4.68034 2.98145 5.38672 2.98145C6.11589 2.98145 6.67643 3.16829 7.06836 3.54199C7.46029 3.91569 7.65625 4.44206 7.65625 5.12109H6.6582C6.6582 4.66992 6.54883 4.34863 6.33008 4.15723C6.11589 3.96126 5.80143 3.86328 5.38672 3.86328C4.95833 3.86328 4.62109 4.02051 4.375 4.33496C4.12891 4.64941 4.00586 5.08691 4.00586 5.64746V6.41992C4.00586 6.9668 4.12891 7.39746 4.375 7.71191C4.62109 8.02637 4.95833 8.18359 5.38672 8.18359C5.80599 8.18359 6.12044 8.08789 6.33008 7.89648C6.54427 7.70508 6.65137 7.37923 6.65137 6.91895H7.64941ZM1.4082 6.0166C1.4082 6.80046 1.59049 7.52734 1.95508 8.19727C2.31966 8.86263 2.81413 9.38444 3.43848 9.7627C4.06738 10.141 4.74642 10.3301 5.47559 10.3301C6.20475 10.3301 6.88151 10.141 7.50586 9.7627C8.13021 9.38444 8.62467 8.86263 8.98926 8.19727C9.35384 7.52734 9.53613 6.80046 9.53613 6.0166C9.53613 5.24186 9.35612 4.52409 8.99609 3.86328C8.63607 3.20247 8.1416 2.68294 7.5127 2.30469C6.88835 1.92188 6.20931 1.73047 5.47559 1.73047C4.74642 1.73047 4.06738 1.9196 3.43848 2.29785C2.80957 2.67155 2.31283 3.19108 1.94824 3.85645C1.58822 4.52181 1.4082 5.24186 1.4082 6.0166ZM0.62207 6.0166C0.62207 5.09603 0.833984 4.24154 1.25781 3.45312C1.6862 2.66471 2.27637 2.04492 3.02832 1.59375C3.78483 1.13802 4.60059 0.910156 5.47559 0.910156C6.35059 0.910156 7.16406 1.13802 7.91602 1.59375C8.66797 2.04492 9.25586 2.66471 9.67969 3.45312C10.1081 4.24154 10.3223 5.09603 10.3223 6.0166C10.3223 6.91439 10.1172 7.75521 9.70703 8.53906C9.29688 9.32292 8.71354 9.9541 7.95703 10.4326C7.20508 10.9066 6.37793 11.1436 5.47559 11.1436C4.5778 11.1436 3.75065 10.9089 2.99414 10.4395C2.24219 9.96549 1.65885 9.33659 1.24414 8.55273C0.829427 7.76888 0.62207 6.9235 0.62207 6.0166ZM18.3463 7.10352V11H17.0338V1.04688H20.7047C21.7939 1.04688 22.6461 1.32487 23.2613 1.88086C23.8811 2.43685 24.191 3.17285 24.191 4.08887C24.191 5.05501 23.888 5.80013 23.2818 6.32422C22.6803 6.84375 21.8167 7.10352 20.691 7.10352H18.3463ZM18.3463 6.03027H20.7047C21.4065 6.03027 21.9443 5.86621 22.318 5.53809C22.6917 5.2054 22.8785 4.72689 22.8785 4.10254C22.8785 3.51009 22.6917 3.03613 22.318 2.68066C21.9443 2.3252 21.4316 2.14062 20.7799 2.12695H18.3463V6.03027ZM30.934 10.2686C30.4418 10.8473 29.7195 11.1367 28.767 11.1367C27.9786 11.1367 27.377 10.9089 26.9623 10.4531C26.5521 9.99284 26.3448 9.3138 26.3402 8.41602V3.60352H27.6049V8.38184C27.6049 9.50293 28.0606 10.0635 28.9721 10.0635C29.9382 10.0635 30.5808 9.70345 30.8998 8.9834V3.60352H32.1645V11H30.9613L30.934 10.2686ZM38.3674 4.73828C38.176 4.70638 37.9686 4.69043 37.7453 4.69043C36.9159 4.69043 36.3531 5.04362 36.0568 5.75V11H34.7922V3.60352H36.0227L36.0432 4.45801C36.4579 3.7972 37.0458 3.4668 37.8068 3.4668C38.0529 3.4668 38.2398 3.4987 38.3674 3.5625V4.73828ZM43.1689 11.1367C42.1663 11.1367 41.3506 10.8086 40.7217 10.1523C40.0928 9.49154 39.7783 8.6097 39.7783 7.50684V7.27441C39.7783 6.54069 39.9173 5.88672 40.1953 5.3125C40.4779 4.73372 40.8698 4.28255 41.3711 3.95898C41.877 3.63086 42.4238 3.4668 43.0117 3.4668C43.9733 3.4668 44.7207 3.78353 45.2539 4.41699C45.7871 5.05046 46.0537 5.95736 46.0537 7.1377V7.66406H41.043C41.0612 8.39323 41.2731 8.9834 41.6787 9.43457C42.0889 9.88118 42.6084 10.1045 43.2373 10.1045C43.6839 10.1045 44.0622 10.0133 44.3721 9.83105C44.682 9.64876 44.9531 9.40723 45.1855 9.10645L45.958 9.70801C45.3382 10.6605 44.4085 11.1367 43.1689 11.1367ZM43.0117 4.50586C42.5013 4.50586 42.0729 4.69271 41.7266 5.06641C41.3802 5.43555 41.166 5.95508 41.084 6.625H44.7891V6.5293C44.7526 5.88672 44.5794 5.38997 44.2695 5.03906C43.9596 4.68359 43.5404 4.50586 43.0117 4.50586ZM49.5975 11H48.3328V0.5H49.5975V11ZM51.9928 7.2334C51.9928 6.50879 52.1341 5.8571 52.4166 5.27832C52.7037 4.69954 53.1002 4.25293 53.6061 3.93848C54.1165 3.62402 54.6975 3.4668 55.3492 3.4668C56.3564 3.4668 57.1699 3.81543 57.7896 4.5127C58.414 5.20996 58.7262 6.13737 58.7262 7.29492V7.38379C58.7262 8.10384 58.5872 8.75098 58.3092 9.3252C58.0357 9.89486 57.6415 10.3392 57.1266 10.6582C56.6161 10.9772 56.0283 11.1367 55.3629 11.1367C54.3603 11.1367 53.5468 10.7881 52.9225 10.0908C52.3027 9.39355 51.9928 8.4707 51.9928 7.32227V7.2334ZM53.2643 7.38379C53.2643 8.2041 53.4534 8.86263 53.8316 9.35938C54.2145 9.85612 54.7249 10.1045 55.3629 10.1045C56.0055 10.1045 56.5159 9.85384 56.8941 9.35254C57.2724 8.84668 57.4615 8.1403 57.4615 7.2334C57.4615 6.4222 57.2678 5.76595 56.8805 5.26465C56.4977 4.75879 55.9872 4.50586 55.3492 4.50586C54.7249 4.50586 54.2213 4.75423 53.8385 5.25098C53.4557 5.74772 53.2643 6.45866 53.2643 7.38379ZM60.7113 7.24023C60.7113 6.08724 60.9779 5.17122 61.5111 4.49219C62.0443 3.80859 62.7507 3.4668 63.6303 3.4668C64.5326 3.4668 65.2367 3.78581 65.7426 4.42383L65.8041 3.60352H66.9594V10.8223C66.9594 11.7793 66.6745 12.5335 66.1049 13.085C65.5398 13.6364 64.7787 13.9121 63.8217 13.9121C63.2885 13.9121 62.7667 13.7982 62.2562 13.5703C61.7458 13.3424 61.3562 13.0303 61.0873 12.6338L61.7436 11.875C62.2859 12.5449 62.949 12.8799 63.7328 12.8799C64.348 12.8799 64.8266 12.7067 65.1684 12.3604C65.5147 12.014 65.6879 11.5264 65.6879 10.8975V10.2617C65.182 10.8451 64.4916 11.1367 63.6166 11.1367C62.7507 11.1367 62.0489 10.7881 61.5111 10.0908C60.9779 9.39355 60.7113 8.44336 60.7113 7.24023ZM61.9828 7.38379C61.9828 8.21777 62.1537 8.87402 62.4955 9.35254C62.8373 9.8265 63.3158 10.0635 63.9311 10.0635C64.7286 10.0635 65.3142 9.70117 65.6879 8.97656V5.59961C65.3005 4.89323 64.7195 4.54004 63.9447 4.54004C63.3295 4.54004 62.8487 4.7793 62.5023 5.25781C62.156 5.73633 61.9828 6.44499 61.9828 7.38379ZM70.9475 11H69.6828V3.60352H70.9475V11ZM69.5803 1.6416C69.5803 1.43652 69.6418 1.26335 69.7648 1.12207C69.8925 0.980794 70.0793 0.910156 70.3254 0.910156C70.5715 0.910156 70.7583 0.980794 70.8859 1.12207C71.0135 1.26335 71.0773 1.43652 71.0773 1.6416C71.0773 1.84668 71.0135 2.01758 70.8859 2.1543C70.7583 2.29102 70.5715 2.35938 70.3254 2.35938C70.0793 2.35938 69.8925 2.29102 69.7648 2.1543C69.6418 2.01758 69.5803 1.84668 69.5803 1.6416ZM76.6445 10.1045C77.0957 10.1045 77.4899 9.96777 77.8271 9.69434C78.1644 9.4209 78.3512 9.0791 78.3877 8.66895H79.584C79.5612 9.09277 79.4154 9.49609 79.1465 9.87891C78.8776 10.2617 78.5176 10.5671 78.0664 10.7949C77.6198 11.0228 77.1458 11.1367 76.6445 11.1367C75.6374 11.1367 74.8353 10.8018 74.2383 10.1318C73.6458 9.45736 73.3496 8.53678 73.3496 7.37012V7.1582C73.3496 6.43815 73.4818 5.79785 73.7461 5.2373C74.0104 4.67676 74.3887 4.24154 74.8809 3.93164C75.3776 3.62174 75.9632 3.4668 76.6377 3.4668C77.4671 3.4668 78.1553 3.71517 78.7021 4.21191C79.2536 4.70866 79.5475 5.35352 79.584 6.14648H78.3877C78.3512 5.66797 78.1689 5.27604 77.8408 4.9707C77.5173 4.66081 77.1162 4.50586 76.6377 4.50586C75.9951 4.50586 75.4961 4.73828 75.1406 5.20312C74.7897 5.66341 74.6143 6.33105 74.6143 7.20605V7.44531C74.6143 8.29753 74.7897 8.95378 75.1406 9.41406C75.4915 9.87435 75.9928 10.1045 76.6445 10.1045ZM89.7271 6.97363H87.3893V11H86.0699V1.04688H89.3648C90.4859 1.04688 91.3473 1.30208 91.9488 1.8125C92.5549 2.32292 92.858 3.06576 92.858 4.04102C92.858 4.66081 92.6894 5.20085 92.3521 5.66113C92.0195 6.12142 91.5546 6.46549 90.9576 6.69336L93.2955 10.918V11H91.8873L89.7271 6.97363ZM87.3893 5.90039H89.4059C90.0576 5.90039 90.5748 5.73177 90.9576 5.39453C91.345 5.05729 91.5387 4.60612 91.5387 4.04102C91.5387 3.42578 91.3541 2.9541 90.985 2.62598C90.6204 2.29785 90.0917 2.13151 89.399 2.12695H87.3893V5.90039ZM94.9389 8.32715C94.9389 7.84863 95.071 7.40885 95.3354 7.00781C95.6042 6.60677 96.1146 6.13965 96.8666 5.60645C96.4245 5.06868 96.1283 4.63574 95.9779 4.30762C95.8275 3.97949 95.7523 3.65365 95.7523 3.33008C95.7523 2.57357 95.9756 1.98112 96.4223 1.55273C96.8689 1.12435 97.475 0.910156 98.2406 0.910156C98.9242 0.910156 99.4893 1.11068 99.9359 1.51172C100.383 1.9082 100.606 2.40951 100.606 3.01562C100.606 3.41667 100.503 3.78809 100.298 4.12988C100.098 4.46712 99.7445 4.82259 99.2387 5.19629L98.5072 5.73633L100.722 8.38184C101.032 7.78939 101.187 7.13086 101.187 6.40625H102.329C102.329 7.56836 102.048 8.53223 101.488 9.29785L102.91 11H101.392L100.729 10.2139C100.392 10.5146 99.9952 10.7448 99.5395 10.9043C99.0883 11.0592 98.628 11.1367 98.1586 11.1367C97.1879 11.1367 96.4086 10.8792 95.8207 10.3643C95.2328 9.84928 94.9389 9.17025 94.9389 8.32715ZM98.1586 10.1045C98.8285 10.1045 99.4415 9.84928 99.9975 9.33887L97.5707 6.43359L97.3451 6.59766C96.584 7.1582 96.2035 7.7347 96.2035 8.32715C96.2035 8.86491 96.3767 9.29557 96.723 9.61914C97.074 9.94271 97.5525 10.1045 98.1586 10.1045ZM97.017 3.28906C97.017 3.72656 97.2859 4.27344 97.8236 4.92969L98.6303 4.3623C98.9402 4.14355 99.1521 3.9362 99.266 3.74023C99.3799 3.53971 99.4369 3.29818 99.4369 3.01562C99.4369 2.71029 99.323 2.45736 99.0951 2.25684C98.8673 2.05176 98.5801 1.94922 98.2338 1.94922C97.8601 1.94922 97.5639 2.07682 97.3451 2.33203C97.1264 2.58268 97.017 2.90169 97.017 3.28906ZM104.813 11V1.04688H107.622C108.488 1.04688 109.254 1.23828 109.919 1.62109C110.585 2.00391 111.097 2.5485 111.457 3.25488C111.822 3.96126 112.006 4.77246 112.011 5.68848V6.32422C112.011 7.26302 111.829 8.08561 111.464 8.79199C111.104 9.49837 110.587 10.0407 109.912 10.4189C109.242 10.7972 108.461 10.9909 107.568 11H104.813ZM106.125 2.12695V9.92676H107.506C108.518 9.92676 109.304 9.6123 109.864 8.9834C110.43 8.35449 110.712 7.45898 110.712 6.29688V5.71582C110.712 4.58561 110.446 3.70833 109.912 3.08398C109.384 2.45508 108.632 2.13607 107.656 2.12695H106.125ZM113.764 12.9824L113.046 12.4902C113.474 11.8932 113.698 11.278 113.716 10.6445V9.50293H114.953V10.4941C114.953 10.9544 114.839 11.4147 114.611 11.875C114.388 12.3353 114.105 12.7044 113.764 12.9824ZM127.817 11H121.296V10.0908L124.741 6.2627C125.251 5.68392 125.602 5.21452 125.794 4.85449C125.99 4.48991 126.088 4.11393 126.088 3.72656C126.088 3.20703 125.93 2.78092 125.616 2.44824C125.301 2.11556 124.882 1.94922 124.358 1.94922C123.729 1.94922 123.239 2.12923 122.888 2.48926C122.542 2.84473 122.369 3.34147 122.369 3.97949H121.104C121.104 3.06348 121.398 2.32292 121.986 1.75781C122.578 1.19271 123.369 0.910156 124.358 0.910156C125.283 0.910156 126.015 1.15397 126.552 1.6416C127.09 2.12467 127.359 2.76953 127.359 3.57617C127.359 4.55599 126.735 5.72266 125.486 7.07617L122.82 9.96777H127.817V11ZM136.098 6.75488C136.098 8.236 135.845 9.33659 135.339 10.0566C134.833 10.7767 134.043 11.1367 132.967 11.1367C131.905 11.1367 131.119 10.7858 130.609 10.084C130.098 9.3776 129.834 8.32487 129.816 6.92578V5.2373C129.816 3.77441 130.069 2.6875 130.575 1.97656C131.08 1.26562 131.873 0.910156 132.954 0.910156C134.024 0.910156 134.813 1.25423 135.319 1.94238C135.825 2.62598 136.084 3.68327 136.098 5.11426V6.75488ZM134.833 5.02539C134.833 3.95443 134.683 3.17513 134.382 2.6875C134.081 2.19531 133.605 1.94922 132.954 1.94922C132.306 1.94922 131.835 2.19303 131.538 2.68066C131.242 3.16829 131.09 3.91797 131.08 4.92969V6.95312C131.08 8.02865 131.235 8.82389 131.545 9.33887C131.86 9.84928 132.334 10.1045 132.967 10.1045C133.592 10.1045 134.054 9.86296 134.355 9.37988C134.66 8.89681 134.82 8.13574 134.833 7.09668V5.02539ZM144.659 6.75488C144.659 8.236 144.406 9.33659 143.901 10.0566C143.395 10.7767 142.604 11.1367 141.529 11.1367C140.467 11.1367 139.681 10.7858 139.17 10.084C138.66 9.3776 138.395 8.32487 138.377 6.92578V5.2373C138.377 3.77441 138.63 2.6875 139.136 1.97656C139.642 1.26562 140.435 0.910156 141.515 0.910156C142.586 0.910156 143.374 1.25423 143.88 1.94238C144.386 2.62598 144.646 3.68327 144.659 5.11426V6.75488ZM143.395 5.02539C143.395 3.95443 143.244 3.17513 142.944 2.6875C142.643 2.19531 142.167 1.94922 141.515 1.94922C140.868 1.94922 140.396 2.19303 140.1 2.68066C139.804 3.16829 139.651 3.91797 139.642 4.92969V6.95312C139.642 8.02865 139.797 8.82389 140.107 9.33887C140.421 9.84928 140.895 10.1045 141.529 10.1045C142.153 10.1045 142.615 9.86296 142.916 9.37988C143.222 8.89681 143.381 8.13574 143.395 7.09668V5.02539ZM153.405 1.75781L149.283 11H147.957L152.065 2.08594H146.679V1.04688H153.405V1.75781ZM158.303 7.28809H154.967V6.25586H158.303V7.28809ZM166.631 11H160.11V10.0908L163.555 6.2627C164.066 5.68392 164.417 5.21452 164.608 4.85449C164.804 4.48991 164.902 4.11393 164.902 3.72656C164.902 3.20703 164.745 2.78092 164.43 2.44824C164.116 2.11556 163.697 1.94922 163.172 1.94922C162.544 1.94922 162.054 2.12923 161.703 2.48926C161.356 2.84473 161.183 3.34147 161.183 3.97949H159.919C159.919 3.06348 160.212 2.32292 160.8 1.75781C161.393 1.19271 162.184 0.910156 163.172 0.910156C164.098 0.910156 164.829 1.15397 165.367 1.6416C165.905 2.12467 166.173 2.76953 166.173 3.57617C166.173 4.55599 165.549 5.72266 164.3 7.07617L161.634 9.96777H166.631V11ZM174.913 6.75488C174.913 8.236 174.66 9.33659 174.154 10.0566C173.648 10.7767 172.857 11.1367 171.782 11.1367C170.72 11.1367 169.934 10.7858 169.423 10.084C168.913 9.3776 168.649 8.32487 168.63 6.92578V5.2373C168.63 3.77441 168.883 2.6875 169.389 1.97656C169.895 1.26562 170.688 0.910156 171.768 0.910156C172.839 0.910156 173.627 1.25423 174.133 1.94238C174.639 2.62598 174.899 3.68327 174.913 5.11426V6.75488ZM173.648 5.02539C173.648 3.95443 173.497 3.17513 173.197 2.6875C172.896 2.19531 172.42 1.94922 171.768 1.94922C171.121 1.94922 170.649 2.19303 170.353 2.68066C170.057 3.16829 169.904 3.91797 169.895 4.92969V6.95312C169.895 8.02865 170.05 8.82389 170.36 9.33887C170.674 9.84928 171.148 10.1045 171.782 10.1045C172.406 10.1045 172.869 9.86296 173.169 9.37988C173.475 8.89681 173.634 8.13574 173.648 7.09668V5.02539ZM183.754 11H177.233V10.0908L180.678 6.2627C181.188 5.68392 181.539 5.21452 181.731 4.85449C181.927 4.48991 182.025 4.11393 182.025 3.72656C182.025 3.20703 181.867 2.78092 181.553 2.44824C181.238 2.11556 180.819 1.94922 180.295 1.94922C179.666 1.94922 179.176 2.12923 178.825 2.48926C178.479 2.84473 178.306 3.34147 178.306 3.97949H177.041C177.041 3.06348 177.335 2.32292 177.923 1.75781C178.515 1.19271 179.306 0.910156 180.295 0.910156C181.22 0.910156 181.952 1.15397 182.489 1.6416C183.027 2.12467 183.296 2.76953 183.296 3.57617C183.296 4.55599 182.672 5.72266 181.423 7.07617L178.757 9.96777H183.754V11ZM192.035 6.75488C192.035 8.236 191.782 9.33659 191.276 10.0566C190.771 10.7767 189.98 11.1367 188.904 11.1367C187.842 11.1367 187.056 10.7858 186.546 10.084C186.035 9.3776 185.771 8.32487 185.753 6.92578V5.2373C185.753 3.77441 186.006 2.6875 186.512 1.97656C187.018 1.26562 187.811 0.910156 188.891 0.910156C189.962 0.910156 190.75 1.25423 191.256 1.94238C191.762 2.62598 192.021 3.68327 192.035 5.11426V6.75488ZM190.771 5.02539C190.771 3.95443 190.62 3.17513 190.319 2.6875C190.019 2.19531 189.542 1.94922 188.891 1.94922C188.243 1.94922 187.772 2.19303 187.476 2.68066C187.179 3.16829 187.027 3.91797 187.018 4.92969V6.95312C187.018 8.02865 187.173 8.82389 187.482 9.33887C187.797 9.84928 188.271 10.1045 188.904 10.1045C189.529 10.1045 189.991 9.86296 190.292 9.37988C190.597 8.89681 190.757 8.13574 190.771 7.09668V5.02539Z" fill="#3C3C3B"/>
</svg>
