<svg width="25" height="23" viewBox="0 0 25 23" fill="none" xmlns="http://www.w3.org/2000/svg">
<path d="M19.7457 22.7457C19.5541 22.7457 19.3638 22.6882 19.2006 22.5759L13.0333 18.3301L9.7255 20.7457C9.46607 20.935 9.13169 20.9827 8.83045 20.8734C8.5296 20.7638 8.30112 20.5109 8.21956 20.1973L6.55867 13.8092L0.624119 11.5062C0.250516 11.3612 0.00274112 10.9984 2.25906e-05 10.5925C-0.00269594 10.1865 0.240159 9.82034 0.611951 9.67018L23.1773 0.557503C23.2797 0.513359 23.388 0.48787 23.4973 0.481038C23.5364 0.478674 23.5756 0.478674 23.6146 0.480907C23.8409 0.494571 24.0631 0.588115 24.2366 0.760751C24.2546 0.778619 24.2717 0.796881 24.2879 0.815932C24.4316 0.982525 24.5105 1.18564 24.5254 1.39257C24.5291 1.4446 24.5288 1.49728 24.5243 1.54996C24.5212 1.58754 24.5158 1.62498 24.5083 1.66216L20.6994 21.9448C20.6382 22.2707 20.4197 22.5434 20.1178 22.6704C19.998 22.7209 19.8716 22.7457 19.7457 22.7457ZM13.5748 16.3215L19.0684 20.1034L22.0321 4.32121L11.328 14.7748L13.5489 16.3038C13.5578 16.3094 13.5664 16.3155 13.5748 16.3215ZM9.00159 15.4806L9.73715 18.3092L11.3219 17.1519L9.24678 15.7232C9.15033 15.657 9.06774 15.5745 9.00159 15.4806ZM3.64233 10.5674L7.71728 12.1486C8.0092 12.2618 8.22953 12.5109 8.30927 12.8176L8.82605 14.8053C8.84974 14.576 8.95214 14.3603 9.11849 14.1977L19.318 4.23713L3.64233 10.5674Z" fill="#95B03C"/>
</svg>
