<svg width="25" height="25" viewBox="0 0 25 25" fill="none" xmlns="http://www.w3.org/2000/svg">
<path d="M8.65449 5.55664C8.6173 5.5595 8.57868 5.56804 8.54292 5.58091C7.39721 5.93278 6.58477 6.55639 6.14708 7.36597C5.70796 8.17555 5.65075 9.12531 5.83956 10.0922C6.21717 12.0203 7.55169 14.0958 9.24236 15.8237C10.9316 17.5515 12.967 18.9347 14.9109 19.3381C15.8821 19.5398 16.849 19.4868 17.6843 19.0477C18.5196 18.6086 19.1862 17.7933 19.5981 16.6289C19.6768 16.403 19.591 16.1541 19.3893 16.0253L15.7219 13.7268L15.7147 13.7167C15.6947 13.7067 15.6775 13.6953 15.6575 13.6853C15.6046 13.651 15.5445 13.6252 15.4816 13.6138C15.4758 13.6138 15.4687 13.6138 15.4644 13.6138C15.4501 13.6109 15.4372 13.6081 15.4258 13.6066C15.4229 13.6066 15.4201 13.6066 15.4158 13.6066C15.3314 13.6024 15.2456 13.6167 15.1683 13.6553C15.1383 13.6681 15.1111 13.6839 15.0854 13.7025C15.0696 13.7111 15.0553 13.7239 15.0382 13.7339C15.0324 13.7425 15.0281 13.7511 15.0224 13.7597C14.9995 13.7769 14.9824 13.7954 14.9666 13.8169L14.1628 14.6279C12.7052 13.8941 11.5839 12.6626 10.5755 11.002L11.3164 10.271C11.3307 10.2581 11.345 10.2453 11.3564 10.2296C11.3679 10.221 11.3793 10.2096 11.3893 10.1981C11.3893 10.1953 11.3893 10.1924 11.3893 10.191C11.3979 10.1795 11.4093 10.1709 11.4194 10.1581C11.4194 10.1552 11.4194 10.1537 11.4194 10.1523C11.4265 10.1423 11.4294 10.1352 11.4351 10.1266C11.4422 10.1209 11.4465 10.1151 11.4523 10.1108C11.458 10.098 11.4651 10.0837 11.468 10.0708C11.468 10.068 11.468 10.0665 11.468 10.0622C11.4709 10.0579 11.4737 10.0522 11.478 10.0465C11.4823 10.035 11.4866 10.0264 11.4937 10.0136C11.4966 10.0007 11.4995 9.98786 11.5009 9.97498C11.5009 9.97212 11.5009 9.97072 11.5009 9.96643C11.5052 9.95069 11.508 9.93496 11.5095 9.9178C11.5095 9.91637 11.5095 9.91345 11.5095 9.90916C11.5095 9.89628 11.5095 9.88196 11.5095 9.86909C11.5095 9.86622 11.5095 9.86484 11.5095 9.86341C11.5095 9.84911 11.5095 9.83482 11.5095 9.82194C11.5095 9.81622 11.5095 9.81195 11.5095 9.80623C11.5066 9.79192 11.5052 9.77755 11.5009 9.76467C11.5009 9.76181 11.5009 9.75894 11.5009 9.75751C11.4937 9.72748 11.4823 9.69751 11.4694 9.6689C11.4694 9.66747 11.4694 9.66457 11.4694 9.66314C11.4594 9.64169 11.4494 9.61877 11.438 9.59732L11.4308 9.5816C11.4265 9.57874 11.4251 9.5773 11.4222 9.57444L9.12937 5.81121C9.04068 5.66246 8.87906 5.56804 8.70312 5.56232C8.68739 5.55659 8.66879 5.55664 8.65449 5.55664ZM8.46854 6.69087L10.3452 9.78475L9.56419 10.5571C9.40113 10.7216 9.36824 10.9747 9.48409 11.1764C10.6741 13.239 12.0845 14.841 14.0584 15.7121C14.2515 15.7994 14.4775 15.7564 14.6276 15.6091L15.4558 14.7795L18.4796 16.6704C18.1449 17.4214 17.7086 17.872 17.208 18.1323C16.6301 18.4355 15.925 18.4913 15.1183 18.3254C13.5048 17.9907 11.5581 16.7234 9.97041 15.1013C8.38558 13.4793 7.15691 11.5026 6.84223 9.89772C6.68776 9.09529 6.75498 8.40443 7.0525 7.85661C7.30996 7.38459 7.74336 6.9798 8.46854 6.69087Z" fill="#95B03C" stroke="#95B03C" stroke-width="0.5"/>
<path d="M15.9545 19.6272C15.6083 19.6272 15.2436 19.5885 14.8717 19.5113C13.0294 19.128 10.984 17.8635 9.11165 15.9469C7.27507 14.0702 6.01779 11.949 5.66164 10.1253C5.44851 9.02966 5.55722 8.07277 5.98776 7.27893C6.45548 6.41356 7.31941 5.76564 8.48801 5.40805C8.53378 5.39231 8.58671 5.38079 8.6382 5.37793H8.6997C8.94286 5.38651 9.15742 5.51245 9.279 5.71413L11.5904 9.50599C11.6019 9.52888 11.6148 9.55457 11.6248 9.57889L11.6419 9.62184C11.6534 9.65188 11.6648 9.68187 11.672 9.71334L11.6849 9.91509C11.6834 9.94942 11.6791 9.97369 11.6734 9.99515C11.672 10.0209 11.6691 10.0352 11.6648 10.0495L11.6305 10.1354C11.6248 10.1568 11.6205 10.1668 11.6162 10.1768L11.5661 10.264L11.5132 10.3241C11.4975 10.3398 11.4817 10.3556 11.466 10.3684C11.4689 10.367 11.456 10.3827 11.4331 10.4028L10.7995 11.0293C11.8136 12.6699 12.8763 13.7484 14.125 14.4092L14.8373 13.6912C14.8445 13.6797 14.8631 13.6612 14.8845 13.6411L14.9446 13.5811L15.0605 13.7184L14.9918 13.5496C15.0118 13.5324 15.0519 13.5096 15.0948 13.491C15.1763 13.4509 15.2779 13.428 15.3809 13.428L15.441 13.4294C15.4624 13.4309 15.481 13.4351 15.5039 13.4409C15.594 13.4552 15.677 13.4895 15.7499 13.5352L15.8114 13.5782L15.8128 13.5753L19.4803 15.8754C19.752 16.0484 19.8679 16.3817 19.762 16.6878C19.3444 17.8678 18.6535 18.7403 17.7638 19.2066C17.2318 19.4841 16.621 19.6272 15.9545 19.6272ZM8.69398 5.73272H8.65107C8.64392 5.73415 8.62104 5.73846 8.59815 5.74704C7.51537 6.07888 6.72296 6.66671 6.301 7.44768C5.91195 8.16572 5.81468 9.04395 6.01207 10.0552C6.35536 11.8117 7.57831 13.8685 9.36768 15.6951C11.1914 17.5617 13.1724 18.7918 14.9446 19.1609C15.9487 19.3668 16.8613 19.2738 17.5979 18.8876C18.4075 18.4614 19.0397 17.6604 19.4259 16.5662C19.4774 16.4188 19.4216 16.2572 19.29 16.1743L15.5582 13.8328C15.5225 13.8099 15.4824 13.7942 15.4438 13.7856L15.3823 13.7812C15.3337 13.7812 15.2865 13.7913 15.2436 13.8114C15.2193 13.8214 15.2035 13.8314 15.1906 13.8414L15.0919 13.9372L14.1951 14.8412L14.0793 14.7825C12.6875 14.0816 11.5247 12.9088 10.4204 11.0894L10.3475 10.9693L11.2872 10.0238V9.97943L11.3258 9.91509L11.3273 9.81775L11.3187 9.7906V9.76633C11.3172 9.76633 11.3115 9.75345 11.3058 9.74057L11.2872 9.69474C11.2844 9.68902 11.2829 9.6848 11.2801 9.68051L11.2829 9.67903L8.97433 5.8972C8.91426 5.79851 8.80984 5.73702 8.69398 5.73272ZM15.963 18.593C15.687 18.593 15.3909 18.5616 15.0819 18.4972C13.4814 18.1654 11.5232 16.9409 9.84256 15.2245C8.16761 13.5095 6.98185 11.5313 6.66717 9.92932C6.50268 9.07826 6.57992 8.35023 6.89603 7.76808C7.19497 7.2131 7.68702 6.80544 8.39933 6.5208L8.54094 6.46501L10.5677 9.80919L9.68665 10.6803C9.58223 10.7861 9.56078 10.9521 9.63659 11.0822C10.9468 13.3522 12.3743 14.7697 14.1293 15.5435C14.2581 15.6022 14.4054 15.5706 14.5012 15.4762L15.4281 14.5465L18.705 16.5977L18.6421 16.7393C18.3131 17.4788 17.8697 17.9851 17.2904 18.2869C16.9042 18.49 16.4579 18.593 15.963 18.593ZM8.39361 6.91269C7.8372 7.16015 7.44958 7.49634 7.21071 7.93832C6.93465 8.44609 6.87028 9.0926 7.01761 9.8607C7.31369 11.3726 8.49373 13.3322 10.0972 14.9742C11.7306 16.642 13.6201 17.8292 15.1535 18.1482C15.9244 18.3069 16.5952 18.2469 17.1245 17.9723C17.5936 17.7262 17.9627 17.3214 18.2487 16.7349L15.4796 15.0043L14.7515 15.7323C14.547 15.9311 14.2352 15.9854 13.9806 15.8739C12.154 15.0686 10.6736 13.604 9.32477 11.2639C9.16886 10.9936 9.2132 10.6503 9.43205 10.43L10.1143 9.7548L8.39361 6.91269Z" fill="#95B03C" stroke="#95B03C" stroke-width="0.5"/>
<path d="M12.6843 1.17603C6.44079 1.17603 1.36304 6.24945 1.36304 12.4972C1.36304 14.7686 2.0353 16.8898 3.22249 18.7107L1.95663 22.9345C1.87367 23.2077 2.02815 23.4938 2.30135 23.5753C2.40433 23.6053 2.51447 23.6039 2.61603 23.5681L6.75117 22.1421C8.47475 23.2034 10.5116 23.8184 12.6843 23.8184C18.9306 23.8184 24.0055 18.7436 24.0055 12.4972C24.0055 6.25088 18.9306 1.17603 12.6843 1.17603ZM12.6843 2.20444C18.3756 2.20444 22.9771 6.80586 22.9771 12.4972C22.9771 18.1886 18.3742 22.79 12.6843 22.79C10.6217 22.79 8.70217 22.1836 7.09875 21.1437C6.9643 21.055 6.79981 21.0378 6.65105 21.0879L3.23108 22.268L4.27666 18.7736C4.32101 18.6249 4.29669 18.4646 4.20801 18.3359C3.04656 16.6309 2.39289 14.6428 2.39289 12.4972C2.39432 6.80586 6.99576 2.20444 12.6843 2.20444Z" fill="#95B03C" stroke="#95B03C" stroke-width="0.5"/>
<path d="M12.6835 24C10.5766 24 8.51975 23.4279 6.72752 22.3422L2.67247 23.7412C2.53658 23.7869 2.3864 23.7898 2.24908 23.7512C2.07029 23.6968 1.92439 23.5781 1.83571 23.4165C1.74846 23.2534 1.72987 23.066 1.78279 22.8873L3.02434 18.7435C1.81998 16.864 1.18347 14.707 1.18347 12.5C1.18347 6.15925 6.34275 1 12.6835 1C19.0257 1 24.1835 6.15925 24.1835 12.5C24.1835 18.8422 19.0257 24 12.6835 24ZM6.77186 21.9489L6.84338 21.9933C8.59556 23.0732 10.6152 23.6424 12.6835 23.6424C18.8283 23.6424 23.8259 18.6448 23.8259 12.5C23.8259 6.35664 18.8283 1.35759 12.6835 1.35759C6.54014 1.35759 1.54106 6.35664 1.54106 12.5C1.54106 14.6656 2.17328 16.7796 3.37048 18.6148L3.41625 18.6848L2.1275 22.9888C2.10176 23.076 2.11034 23.1662 2.15325 23.2448C2.19616 23.3235 2.26768 23.3821 2.3535 23.4064C2.41787 23.4279 2.49367 23.4265 2.55804 23.4022L6.77186 21.9489ZM12.6835 22.9716C10.6553 22.9716 8.68996 22.3923 7.00071 21.2952C6.91346 21.2394 6.80333 21.228 6.70606 21.2595L2.95854 22.5525L4.10425 18.7235C4.13429 18.6276 4.11712 18.5232 4.05991 18.4388C2.85269 16.668 2.21333 14.6126 2.21333 12.5C2.21333 6.72567 6.90917 2.02841 12.6821 2.02841C18.4564 2.02841 23.1537 6.72567 23.1537 12.5C23.1551 18.2743 18.4578 22.9716 12.6835 22.9716ZM6.81763 20.8847C6.95208 20.8847 7.08367 20.9233 7.19524 20.9977C8.82584 22.0547 10.7239 22.6155 12.6835 22.6155C18.2604 22.6155 22.7975 18.0783 22.7975 12.5014C22.7975 6.92445 18.2604 2.3874 12.6835 2.3874C7.10799 2.3874 2.57234 6.92445 2.57234 12.5014C2.57234 14.5439 3.18883 16.5264 4.35599 18.24C4.47471 18.4131 4.50761 18.6276 4.44754 18.8293L3.50064 21.9904L6.5902 20.9219C6.66601 20.8962 6.74039 20.8847 6.81763 20.8847Z" fill="#95B03C" stroke="#95B03C" stroke-width="0.5"/>
</svg>
