<svg width="250" height="46" viewBox="0 0 250 46" fill="none" xmlns="http://www.w3.org/2000/svg">
<path fill-rule="evenodd" clip-rule="evenodd" d="M14.276 33.6197C14.154 33.9795 13.9566 34.3092 13.6969 34.5866C13.4372 34.864 13.1212 35.0827 12.7701 35.2282C12.4191 35.3736 12.041 35.4424 11.6612 35.4299C11.2814 35.4174 10.9087 35.3239 10.5679 35.1557L5.06296 40.6561C5.34211 41.2228 5.41097 41.8702 5.25728 42.483C5.10358 43.0957 4.73732 43.6339 4.22375 44.0018C3.71018 44.3696 3.08269 44.5432 2.45309 44.4915C1.8235 44.4398 1.23271 44.1662 0.786024 43.7195C0.339335 43.2728 0.0657653 42.6821 0.0140722 42.0525C-0.0376208 41.4229 0.13592 40.7954 0.503767 40.2818C0.871613 39.7682 1.40987 39.402 2.0226 39.2483C2.63533 39.0946 3.28273 39.1635 3.84942 39.4426L9.34867 33.9433C9.18306 33.6155 9.0869 33.2569 9.06621 32.8902C9.04552 32.5234 9.10075 32.1563 9.22844 31.8119C9.35613 31.4674 9.55353 31.1531 9.80829 30.8884C10.0631 30.6238 10.3697 30.4145 10.709 30.2738C11.0483 30.1331 11.4131 30.064 11.7803 30.0707C12.1476 30.0774 12.5096 30.1599 12.8435 30.3129C13.1775 30.4659 13.4763 30.6862 13.7212 30.96C13.9661 31.2337 14.1519 31.5551 14.2669 31.904H18.285C18.4177 31.5152 18.6382 31.1622 18.9293 30.8724C19.2205 30.5826 19.5746 30.3638 19.964 30.233V26.2298C19.6093 26.1207 19.2812 25.9389 19.0007 25.6959C18.7202 25.4529 18.4934 25.1541 18.3349 24.8185C18.1764 24.483 18.0895 24.1181 18.0799 23.7471C18.0703 23.3761 18.1382 23.0072 18.2792 22.6639C18.4202 22.3206 18.6312 22.0105 18.8988 21.7534C19.1663 21.4962 19.4846 21.2977 19.8332 21.1704C20.1818 21.0431 20.5531 20.99 20.9234 21.0143C21.2937 21.0386 21.6549 21.1398 21.9839 21.3115L27.4946 15.8009C27.215 15.2348 27.1454 14.5878 27.2983 13.9752C27.4512 13.3626 27.8166 12.8242 28.3294 12.4559C28.8422 12.0877 29.4692 11.9134 30.0985 11.9642C30.7278 12.015 31.3187 12.2876 31.7657 12.7335C32.2128 13.1793 32.4871 13.7693 32.5397 14.3985C32.5923 15.0277 32.4198 15.6551 32.053 16.169C31.6861 16.6828 31.1487 17.0498 30.5366 17.2044C29.9244 17.359 29.2773 17.2913 28.7104 17.0132L23.1814 22.5434C23.3414 22.8797 23.4293 23.2458 23.4395 23.6181C23.4497 23.9904 23.382 24.3607 23.2407 24.7053C23.0994 25.0499 22.8877 25.3612 22.619 25.6192C22.3504 25.8772 22.0308 26.0762 21.6808 26.2035V30.2432C22.1096 30.3906 22.4937 30.6448 22.7971 30.9818C23.1004 31.3187 23.313 31.7274 23.4146 32.1693C23.5163 32.6111 23.5037 33.0716 23.3782 33.5072C23.2526 33.9429 23.0181 34.3394 22.6969 34.6593C22.3756 34.9793 21.9782 35.2121 21.542 35.3359C21.1059 35.4597 20.6453 35.4704 20.2039 35.367C19.7625 35.2635 19.3547 35.0494 19.0189 34.7446C18.6832 34.4399 18.4306 34.0547 18.285 33.6254L14.276 33.6197Z" fill="#95B03C"/>
<path fill-rule="evenodd" clip-rule="evenodd" d="M5.33684 14.6149C5.33684 15.1427 5.18034 15.6586 4.88713 16.0974C4.59392 16.5363 4.17717 16.8783 3.68958 17.0802C3.20199 17.2822 2.66546 17.3351 2.14784 17.2321C1.63021 17.1291 1.15475 16.875 0.781563 16.5018C0.408378 16.1286 0.154236 15.6532 0.0512745 15.1355C-0.051687 14.6179 0.00115603 14.0814 0.203122 13.5938C0.405089 13.1062 0.747106 12.6895 1.18593 12.3962C1.62474 12.103 2.14066 11.9465 2.66842 11.9465C3.37613 11.9465 4.05485 12.2277 4.55528 12.7281C5.0557 13.2285 5.33684 13.9072 5.33684 14.6149ZM5.33684 23.6873C5.33684 24.2152 5.18031 24.7311 4.88705 25.17C4.59379 25.6088 4.17697 25.9508 3.68931 26.1528C3.20166 26.3547 2.66507 26.4075 2.14742 26.3044C1.62976 26.2014 1.1543 25.9471 0.781158 25.5738C0.408019 25.2005 0.153967 24.7249 0.0511349 24.2072C-0.0516974 23.6895 0.00130874 23.153 0.20345 22.6654C0.405592 22.1778 0.74779 21.7612 1.18676 21.4681C1.62573 21.175 2.14175 21.0187 2.66956 21.0189C3.37698 21.0195 4.05524 21.3009 4.55535 21.8012C5.05546 22.3016 5.33654 22.9799 5.33684 23.6873ZM14.4104 23.6873C14.4104 24.2151 14.2539 24.731 13.9607 25.1698C13.6675 25.6087 13.2507 25.9507 12.7631 26.1526C12.2755 26.3546 11.739 26.4074 11.2214 26.3045C10.7038 26.2015 10.2283 25.9474 9.8551 25.5742C9.48192 25.201 9.22778 24.7255 9.12481 24.2079C9.02185 23.6903 9.0747 23.1538 9.27666 22.6662C9.47863 22.1786 9.82065 21.7618 10.2595 21.4686C10.6983 21.1754 11.2142 21.0189 11.742 21.0189C12.4496 21.0192 13.1281 21.3005 13.6285 21.8008C14.1288 22.3012 14.4101 22.9797 14.4104 23.6873ZM14.4104 14.6149C14.4104 15.1427 14.2539 15.6586 13.9607 16.0974C13.6675 16.5363 13.2507 16.8783 12.7631 17.0802C12.2755 17.2822 11.739 17.3351 11.2214 17.2321C10.7038 17.1291 10.2283 16.875 9.8551 16.5018C9.48192 16.1286 9.22778 15.6532 9.12481 15.1355C9.02185 14.6179 9.0747 14.0814 9.27666 13.5938C9.47863 13.1062 9.82065 12.6895 10.2595 12.3962C10.6983 12.103 11.2142 11.9465 11.742 11.9465C12.4496 11.9468 13.1281 12.2281 13.6285 12.7284C14.1288 13.2288 14.4101 13.9073 14.4104 14.6149ZM23.4462 14.6149C23.4462 15.1425 23.2898 15.6582 22.9968 16.097C22.7038 16.5357 22.2873 16.8777 21.8 17.0798C21.3126 17.2819 20.7763 17.335 20.2589 17.2324C19.7414 17.1298 19.2659 16.8761 18.8925 16.5034C18.5191 16.1307 18.2646 15.6557 18.1612 15.1383C18.0577 14.621 18.1099 14.0846 18.3111 13.597C18.5124 13.1093 18.8537 12.6922 19.2919 12.3985C19.7301 12.1047 20.2456 11.9474 20.7732 11.9465C21.4809 11.9465 22.1596 12.2277 22.66 12.7281C23.1605 13.2285 23.4416 13.9072 23.4416 14.6149H23.4462ZM32.5609 23.6873C32.5609 24.2152 32.4044 24.7311 32.1111 25.17C31.8178 25.6088 31.401 25.9508 30.9134 26.1528C30.4257 26.3547 29.8891 26.4075 29.3715 26.3044C28.8538 26.2014 28.3783 25.9471 28.0052 25.5738C27.6321 25.2005 27.378 24.7249 27.2752 24.2072C27.1723 23.6895 27.2254 23.153 27.4275 22.6654C27.6296 22.1778 27.9718 21.7612 28.4108 21.4681C28.8498 21.175 29.3658 21.0187 29.8936 21.0189C30.6003 21.0204 31.2776 21.3022 31.7768 21.8025C32.276 22.3028 32.5563 22.9806 32.5563 23.6873H32.5609ZM32.5609 32.7609C32.5609 33.2887 32.4044 33.8047 32.1111 34.2435C31.8178 34.6823 31.401 35.0244 30.9134 35.2263C30.4257 35.4282 29.8891 35.481 29.3715 35.3779C28.8538 35.2749 28.3783 35.0206 28.0052 34.6473C27.6321 34.274 27.378 33.7985 27.2752 33.2808C27.1723 32.7631 27.2254 32.2265 27.4275 31.7389C27.6296 31.2514 27.9718 30.8347 28.4108 30.5416C28.8498 30.2485 29.3658 30.0922 29.8936 30.0925C30.6007 30.094 31.2783 30.3761 31.7776 30.8769C32.2768 31.3776 32.5569 32.0561 32.5563 32.7632L32.5609 32.7609ZM32.5609 41.8344C32.5613 42.3621 32.4053 42.8781 32.1125 43.3172C31.8197 43.7562 31.4034 44.0986 30.916 44.301C30.4287 44.5034 29.8922 44.5568 29.3746 44.4544C28.8569 44.352 28.3812 44.0983 28.0076 43.7256C27.6341 43.3528 27.3794 42.8777 27.2759 42.3602C27.1724 41.8428 27.2246 41.3062 27.426 40.8184C27.6273 40.3307 27.9688 39.9135 28.4072 39.6198C28.8457 39.3261 29.3613 39.169 29.889 39.1683C30.5962 39.1683 31.2745 39.4491 31.7747 39.9491C32.2749 40.4491 32.556 41.1272 32.5563 41.8344H32.5609ZM23.4462 41.8344C23.4466 42.3621 23.2906 42.878 22.9979 43.3171C22.7052 43.7561 22.2888 44.0985 21.8016 44.3009C21.3143 44.5034 20.7779 44.5568 20.2603 44.4545C19.7426 44.3521 19.2669 44.0986 18.8933 43.726C18.5197 43.3533 18.265 42.8783 18.1613 42.3609C18.0577 41.8435 18.1097 41.307 18.3109 40.8192C18.5121 40.3314 18.8534 39.9142 19.2917 39.6204C19.73 39.3265 20.2455 39.1692 20.7732 39.1683C21.4805 39.1683 22.1589 39.4491 22.6592 39.949C23.1596 40.449 23.441 41.1271 23.4416 41.8344H23.4462ZM14.4104 41.8344C14.4108 42.3623 14.2547 42.8784 13.9618 43.3175C13.6688 43.7567 13.2523 44.099 12.7647 44.3013C12.2772 44.5037 11.7406 44.5568 11.2228 44.4541C10.705 44.3514 10.2293 44.0975 9.85591 43.7244C9.4825 43.3513 9.22813 42.8758 9.12498 42.3581C9.02184 41.8404 9.07454 41.3038 9.27644 40.8161C9.47834 40.3284 9.82036 39.9115 10.2592 39.6182C10.6981 39.3248 11.2141 39.1683 11.742 39.1683C12.4492 39.1686 13.1274 39.4495 13.6277 39.9494C14.128 40.4492 14.4095 41.1272 14.4104 41.8344ZM5.33684 32.7632C5.33684 33.291 5.18031 33.8069 4.88705 34.2458C4.59379 34.6846 4.17697 35.0266 3.68931 35.2286C3.20166 35.4305 2.66507 35.4833 2.14742 35.3802C1.62976 35.2772 1.1543 35.0229 0.781158 34.6496C0.408019 34.2763 0.153967 33.8007 0.0511349 33.283C-0.0516974 32.7654 0.00130874 32.2288 0.20345 31.7412C0.405592 31.2536 0.74779 30.837 1.18676 30.5439C1.62573 30.2508 2.14175 30.0945 2.66956 30.0948C3.37698 30.0954 4.05524 30.3767 4.55535 30.877C5.05546 31.3774 5.33654 32.0558 5.33684 32.7632Z" fill="#3C3C3B"/>
<path fill-rule="evenodd" clip-rule="evenodd" d="M172.85 44.0006V40.6898C172.856 40.4204 172.814 40.1522 172.726 39.8977C172.628 39.6403 172.473 39.4083 172.273 39.2188C172.121 39.0673 171.937 38.9513 171.734 38.8793C171.502 38.7979 171.258 38.7566 171.013 38.7571C170.814 38.7555 170.615 38.7783 170.422 38.825C170.242 38.8737 170.071 38.9501 169.915 39.0513C169.749 39.1554 169.597 39.2801 169.462 39.4225C169.308 39.2073 169.101 39.0357 168.86 38.9246C168.616 38.8135 168.35 38.7586 168.082 38.7639C167.923 38.765 167.765 38.7855 167.611 38.825C167.457 38.8661 167.308 38.9277 167.17 39.0083C167.031 39.0884 166.903 39.1865 166.79 39.3003V38.8228H165.529V44.0006H166.824V40.8708C166.819 40.7164 166.845 40.5625 166.901 40.4182C166.944 40.3069 167.013 40.2076 167.102 40.1285C167.183 40.0564 167.277 40.0017 167.38 39.9679C167.48 39.9354 167.584 39.9193 167.688 39.9203C167.792 39.9206 167.895 39.9366 167.994 39.9679C168.095 40.0023 168.188 40.0569 168.267 40.1285C168.355 40.2085 168.422 40.3077 168.464 40.4182C168.52 40.5625 168.546 40.7164 168.541 40.8708V44.0006H169.833V40.8324C169.831 40.6852 169.858 40.5389 169.913 40.4024C169.959 40.295 170.029 40.1992 170.116 40.1217C170.198 40.0518 170.293 39.9987 170.395 39.9656C170.493 39.9335 170.595 39.9174 170.698 39.9181C170.802 39.9182 170.906 39.9342 171.006 39.9656C171.107 39.9995 171.199 40.0543 171.277 40.1263C171.366 40.2055 171.434 40.3048 171.476 40.4159C171.531 40.5606 171.557 40.7142 171.553 40.8686V43.9984L172.85 44.0006ZM161.725 41.4072C161.728 41.6045 161.719 41.8018 161.696 41.9978C161.682 42.1598 161.643 42.3186 161.58 42.4685C161.525 42.5976 161.433 42.7073 161.315 42.7831C161.172 42.8588 161.013 42.8984 160.851 42.8984C160.69 42.8984 160.53 42.8588 160.387 42.7831C160.27 42.7073 160.177 42.5976 160.123 42.4685C160.06 42.3184 160.021 42.1597 160.005 41.9978C159.984 41.8016 159.974 41.6044 159.976 41.4072C159.974 41.2106 159.984 41.0142 160.005 40.8188C160.021 40.6576 160.06 40.4997 160.123 40.3503C160.177 40.2223 160.27 40.1141 160.387 40.0403C160.528 39.9592 160.689 39.9199 160.851 39.9271C161.01 39.9231 161.166 39.9622 161.304 40.0403C161.422 40.1141 161.514 40.2223 161.569 40.3503C161.632 40.4995 161.67 40.6575 161.684 40.8188C161.711 41.0138 161.725 41.2103 161.725 41.4072ZM163.017 41.4072C163.017 41.2103 163.017 41.0157 163.017 40.8142C163.011 40.6154 162.99 40.4173 162.956 40.2213C162.927 40.0352 162.875 39.8534 162.8 39.6804C162.674 39.3796 162.447 39.1328 162.157 38.9834C162.022 38.9104 161.877 38.8556 161.727 38.8205C161.567 38.783 161.403 38.7641 161.238 38.7639C160.993 38.7578 160.75 38.8001 160.521 38.8884C160.299 38.9832 160.103 39.1281 159.946 39.3116V38.8228H158.677V45.8948H159.967V43.5435C160.118 43.7183 160.308 43.8554 160.521 43.9441C160.745 44.0264 160.982 44.0656 161.22 44.0595C161.385 44.0604 161.549 44.0414 161.709 44.0029C161.859 43.9686 162.003 43.9145 162.139 43.8422C162.431 43.6941 162.659 43.4458 162.782 43.1429C162.856 42.9681 162.908 42.785 162.938 42.5975C162.972 42.4016 162.992 42.2034 162.999 42.0046C163.017 41.8009 163.019 41.595 163.017 41.4072ZM154.87 41.4072C154.87 41.5859 154.87 41.7557 154.852 41.9141C154.842 42.0594 154.815 42.203 154.771 42.3418C154.729 42.464 154.662 42.5759 154.574 42.67C154.498 42.7434 154.409 42.8011 154.311 42.8397C154.201 42.8799 154.084 42.8998 153.967 42.8985C153.851 42.9003 153.735 42.8803 153.625 42.8397C153.529 42.8015 153.442 42.7437 153.37 42.67C153.28 42.5771 153.212 42.4648 153.173 42.3418C153.128 42.2031 153.1 42.0595 153.089 41.9141C153.076 41.7557 153.069 41.5859 153.071 41.4072C153.073 41.2284 153.071 41.0609 153.089 40.9048C153.1 40.7601 153.128 40.6173 153.173 40.4793C153.213 40.3576 153.28 40.2469 153.37 40.1557C153.443 40.082 153.53 40.0235 153.625 39.9837C153.735 39.9448 153.851 39.9256 153.967 39.9271C154.084 39.926 154.201 39.9451 154.311 39.9837C154.409 40.0231 154.498 40.0816 154.574 40.1557C154.661 40.2485 154.728 40.3588 154.771 40.4793C154.815 40.6174 154.842 40.7602 154.852 40.9048C154.868 41.0587 154.875 41.2284 154.872 41.4072H154.87ZM156.162 41.4072C156.164 41.1303 156.148 40.8537 156.115 40.5789C156.086 40.3551 156.026 40.1365 155.936 39.9294C155.848 39.7334 155.726 39.5542 155.576 39.3998C155.46 39.279 155.329 39.1733 155.187 39.0853C155.021 38.985 154.841 38.9088 154.653 38.859C154.204 38.7383 153.731 38.7383 153.281 38.859C153.095 38.9088 152.917 38.985 152.752 39.0853C152.611 39.1731 152.481 39.2789 152.367 39.3998C152.217 39.5536 152.095 39.7329 152.007 39.9294C151.916 40.1358 151.855 40.3547 151.829 40.5789C151.793 40.8535 151.776 41.1303 151.779 41.4072C151.776 41.6863 151.793 41.9653 151.829 42.2422C151.855 42.4679 151.916 42.6883 152.007 42.8963C152.095 43.0919 152.217 43.2705 152.367 43.4236C152.481 43.5458 152.61 43.6523 152.752 43.7404C152.917 43.8397 153.095 43.9159 153.281 43.9667C153.503 44.0267 153.731 44.0564 153.96 44.0549C154.19 44.0572 154.418 44.0275 154.639 43.9667C154.827 43.9159 155.006 43.8397 155.173 43.7404C155.316 43.6523 155.447 43.5458 155.563 43.4236C155.712 43.27 155.834 43.0915 155.922 42.8963C156.012 42.6877 156.073 42.4675 156.101 42.2422C156.14 41.9655 156.161 41.6866 156.165 41.4072H156.162ZM149.876 44.0006V42.9076H149.378C149.314 42.9138 149.25 42.9065 149.19 42.8862C149.129 42.8659 149.074 42.8331 149.027 42.7899C148.949 42.6913 148.911 42.5668 148.921 42.4414V36.924H147.633V42.5206C147.632 42.7044 147.661 42.8871 147.719 43.0615C147.775 43.236 147.867 43.397 147.988 43.5344C148.116 43.6828 148.278 43.799 148.459 43.8739C148.674 43.9624 148.905 44.0056 149.138 44.0006H149.876ZM143.926 40.9297H141.959C141.96 40.8614 141.966 40.7933 141.977 40.726C141.986 40.6672 141.998 40.609 142.014 40.5517C142.032 40.4908 142.054 40.431 142.079 40.3729C142.125 40.2702 142.188 40.1766 142.267 40.0969C142.349 40.0152 142.447 39.9513 142.555 39.909C142.804 39.8126 143.081 39.8126 143.331 39.909C143.438 39.9513 143.536 40.0152 143.618 40.0969C143.697 40.1771 143.761 40.2706 143.808 40.3729C143.833 40.4313 143.854 40.491 143.872 40.5517C143.89 40.6084 143.902 40.6668 143.908 40.726C143.92 40.7933 143.926 40.8614 143.928 40.9297H143.926ZM145.2 41.8145V41.2397C145.204 40.9047 145.153 40.5713 145.048 40.253C144.956 39.9652 144.807 39.6984 144.612 39.4677C144.418 39.2444 144.175 39.068 143.903 38.9518C143.6 38.8242 143.273 38.7603 142.944 38.7639C142.628 38.761 142.315 38.8211 142.023 38.9404C141.75 39.0545 141.507 39.2294 141.312 39.4519C141.107 39.6954 140.953 39.9779 140.86 40.2824C140.747 40.6489 140.692 41.0306 140.697 41.414C140.691 41.7788 140.735 42.1428 140.828 42.4957C140.901 42.7676 141.022 43.0243 141.185 43.2538C141.331 43.4474 141.513 43.6117 141.72 43.7381C141.922 43.8572 142.142 43.9435 142.371 43.9938C142.608 44.0442 142.849 44.0685 143.091 44.0663C143.363 44.0714 143.635 44.0402 143.899 43.9735C144.12 43.915 144.33 43.8218 144.521 43.6974C144.716 43.5672 144.896 43.4153 145.058 43.2448L144.274 42.4776C144.176 42.5792 144.066 42.6702 143.949 42.7492C143.837 42.8229 143.714 42.8779 143.584 42.9121C143.426 42.9499 143.263 42.9681 143.1 42.9664C142.885 42.9709 142.673 42.9186 142.484 42.8148C142.32 42.7186 142.186 42.5773 142.1 42.4074C142.01 42.222 141.965 42.0182 141.968 41.8123L145.2 41.8145ZM138.988 38.8228H137.63L136.587 42.0227L135.532 38.8228H134.174L136.082 44.0006H137.096L138.988 38.8228ZM131.203 40.9297H129.236C129.238 40.8615 129.243 40.7935 129.252 40.726C129.261 40.6672 129.273 40.609 129.289 40.5517C129.307 40.4952 129.327 40.4363 129.354 40.3729C129.4 40.2707 129.464 40.1772 129.542 40.0969C129.625 40.0152 129.723 39.9513 129.832 39.909C130.081 39.8125 130.357 39.8125 130.606 39.909C130.713 39.9513 130.811 40.0152 130.893 40.0969C130.973 40.1766 131.037 40.2701 131.083 40.3729C131.108 40.4313 131.13 40.491 131.149 40.5517C131.165 40.6089 131.177 40.6671 131.185 40.726C131.199 40.7871 131.203 40.8572 131.208 40.9297H131.203ZM132.475 41.8145V41.2397C132.479 40.9049 132.428 40.5717 132.326 40.253C132.232 39.9651 132.083 39.6983 131.887 39.4677C131.692 39.2444 131.45 39.068 131.178 38.9518C130.875 38.8242 130.548 38.7603 130.219 38.7639C129.904 38.761 129.591 38.8211 129.3 38.9404C129.026 39.0544 128.783 39.2293 128.587 39.4519C128.382 39.6954 128.228 39.9779 128.134 40.2824C128.022 40.6489 127.967 41.0306 127.971 41.414C127.966 41.779 128.011 42.1429 128.105 42.4957C128.177 42.7679 128.299 43.0248 128.463 43.2538C128.607 43.4479 128.788 43.6123 128.994 43.7381C129.198 43.8573 129.418 43.9436 129.648 43.9938C129.884 44.0443 130.125 44.0686 130.366 44.0663C130.639 44.0714 130.911 44.0402 131.176 43.9735C131.397 43.9146 131.607 43.8214 131.798 43.6974C131.993 43.5666 132.173 43.4148 132.335 43.2448L131.549 42.4776C131.451 42.5803 131.342 42.6714 131.223 42.7492C131.112 42.8237 130.989 42.8788 130.859 42.9121C130.701 42.9499 130.539 42.9681 130.377 42.9664C130.162 42.9715 129.95 42.9192 129.762 42.8148C129.596 42.7193 129.463 42.5778 129.377 42.4074C129.285 42.2226 129.239 42.0185 129.243 41.8123L132.475 41.8145ZM124.19 41.4072C124.193 41.6044 124.184 41.8017 124.163 41.9978C124.145 42.1598 124.104 42.3183 124.04 42.4685C123.984 42.5979 123.89 42.7075 123.771 42.7831C123.629 42.8639 123.468 42.9039 123.305 42.8985C123.146 42.9023 122.99 42.8624 122.852 42.7831C122.734 42.7081 122.641 42.5982 122.588 42.4685C122.524 42.3185 122.484 42.1599 122.468 41.9978C122.448 41.8016 122.439 41.6044 122.441 41.4072C122.44 41.2107 122.449 41.0143 122.468 40.8188C122.484 40.6575 122.524 40.4995 122.588 40.3503C122.642 40.2223 122.734 40.1141 122.852 40.0403C122.99 39.9611 123.147 39.9219 123.305 39.9271C123.468 39.9211 123.629 39.9602 123.771 40.0403C123.894 40.113 123.992 40.2211 124.052 40.3503C124.115 40.4998 124.156 40.6576 124.174 40.8188C124.193 41.0143 124.2 41.2108 124.194 41.4072H124.19ZM125.482 44.0006V36.924H124.19V39.2799C124.037 39.1047 123.846 38.9675 123.631 38.8793C123.406 38.7973 123.168 38.7581 122.929 38.7639C122.765 38.7638 122.601 38.7828 122.441 38.8205C122.29 38.8556 122.145 38.9104 122.008 38.9834C121.882 39.0481 121.767 39.1321 121.667 39.2324C121.539 39.3629 121.436 39.5164 121.366 39.685C121.293 39.8586 121.24 40.0401 121.209 40.2259C121.177 40.422 121.158 40.6201 121.151 40.8188C121.151 41.0179 121.137 41.2171 121.139 41.4117C121.142 41.6063 121.139 41.8055 121.151 42.0091C121.158 42.2078 121.177 42.4059 121.209 42.6021C121.24 42.7893 121.293 42.9723 121.366 43.1475C121.437 43.3155 121.539 43.4689 121.667 43.6001C121.769 43.6986 121.884 43.7818 122.011 43.8467C122.149 43.9187 122.295 43.9727 122.447 44.0074C122.608 44.0458 122.773 44.0648 122.938 44.064C123.105 44.0663 123.271 44.0488 123.434 44.0119C123.581 43.9762 123.722 43.9173 123.85 43.8377C123.989 43.7503 124.113 43.6427 124.219 43.5186V44.0052L125.482 44.0006ZM113.51 38.5444C113.51 38.6655 113.469 38.7829 113.393 38.8771C113.311 38.9804 113.213 39.0698 113.103 39.1418L113.049 39.1803L112.927 39.2641L112.807 39.341C112.721 39.2437 112.646 39.1532 112.58 39.0649C112.515 38.9837 112.459 38.8957 112.413 38.8024C112.37 38.7237 112.347 38.6361 112.345 38.5467C112.341 38.4443 112.365 38.3429 112.413 38.2525C112.454 38.1648 112.522 38.0926 112.608 38.0465C112.706 37.992 112.818 37.9654 112.931 37.9696C113.042 37.9659 113.151 37.9925 113.248 38.0465C113.334 38.0935 113.404 38.1652 113.449 38.2525C113.495 38.3428 113.518 38.4432 113.515 38.5444H113.51ZM113.85 42.4708C113.705 42.6045 113.537 42.7118 113.354 42.7876C113.176 42.8567 112.986 42.8912 112.795 42.8895C112.607 42.89 112.421 42.8458 112.252 42.7605C112.095 42.6815 111.962 42.561 111.868 42.412C111.772 42.256 111.722 42.0766 111.723 41.8937C111.721 41.7426 111.752 41.5929 111.813 41.4547C111.875 41.3266 111.959 41.2108 112.062 41.113C112.178 41.0019 112.304 40.9012 112.438 40.812L113.85 42.4708ZM116.792 44.0006L115.522 42.5002C115.769 42.2204 115.955 41.892 116.068 41.5362C116.193 41.1371 116.263 40.723 116.278 40.3051H115.056C115.05 40.5399 115.016 40.7731 114.954 40.9998C114.903 41.1964 114.816 41.3819 114.699 41.5475L113.506 40.1353L113.66 40.029L113.827 39.9068C113.882 39.8683 113.922 39.8343 113.959 39.8072L114.013 39.7687C114.152 39.6692 114.28 39.5555 114.395 39.4293C114.501 39.3105 114.586 39.1752 114.647 39.0287C114.709 38.8718 114.74 38.7041 114.737 38.5353C114.742 38.2334 114.663 37.936 114.511 37.6754C114.365 37.4224 114.149 37.2173 113.888 37.0847C113.59 36.9332 113.259 36.8556 112.924 36.8584C112.574 36.8513 112.227 36.9249 111.911 37.0734C111.643 37.1996 111.418 37.4009 111.263 37.6528C111.111 37.9118 111.033 38.2077 111.037 38.5082C111.038 38.6691 111.061 38.8292 111.107 38.9834C111.15 39.1252 111.209 39.2617 111.281 39.3908C111.35 39.5092 111.425 39.6234 111.508 39.7325C111.589 39.8366 111.668 39.9271 111.734 40.0086C111.577 40.1143 111.426 40.2283 111.281 40.3503C111.132 40.4763 110.995 40.6174 110.874 40.7712C110.752 40.9282 110.653 41.102 110.58 41.2872C110.506 41.4856 110.468 41.6956 110.469 41.9073C110.458 42.3053 110.547 42.6997 110.727 43.0547C110.902 43.3774 111.174 43.6364 111.505 43.7947C111.913 43.9783 112.357 44.0665 112.804 44.0527C113.028 44.0547 113.251 44.0319 113.47 43.9848C113.644 43.9468 113.813 43.8891 113.974 43.8128C114.106 43.7486 114.232 43.6728 114.35 43.5865L114.633 43.3602L115.149 43.9757L116.792 44.0006ZM105.615 44.0006V40.6513C105.618 40.3951 105.58 40.14 105.504 39.8954C105.436 39.676 105.325 39.4727 105.176 39.298C105.028 39.1273 104.843 38.9927 104.635 38.9042C104.397 38.8079 104.142 38.7602 103.886 38.7639C103.659 38.7636 103.434 38.809 103.225 38.8974C103.007 38.9927 102.809 39.1295 102.643 39.3003V36.924H101.353V44.0006H102.643V40.8324C102.64 40.6856 102.666 40.5396 102.718 40.4024C102.756 40.3005 102.817 40.2085 102.895 40.133C102.973 40.0574 103.067 40.0003 103.171 39.9656C103.268 39.9331 103.371 39.9171 103.474 39.9181C103.577 39.9187 103.68 39.9339 103.779 39.9633C103.879 39.9957 103.97 40.0481 104.049 40.1172C104.135 40.1945 104.202 40.2916 104.243 40.4001C104.297 40.5377 104.322 40.6847 104.318 40.8324V44.0006H105.615ZM99.0518 43.3557L98.1896 42.5002C98.1118 42.5854 98.0244 42.6613 97.9293 42.7265C97.8474 42.7839 97.7574 42.8289 97.6623 42.8601C97.5621 42.8881 97.4585 42.9018 97.3545 42.9008C97.2128 42.9033 97.0722 42.8747 96.9426 42.8171C96.8179 42.7577 96.7081 42.6711 96.6213 42.5636C96.5116 42.4273 96.4343 42.2679 96.395 42.0974C96.3445 41.8747 96.3209 41.6468 96.3248 41.4185C96.3204 41.1902 96.3439 40.9621 96.395 40.7396C96.4361 40.5739 96.5134 40.4193 96.6213 40.2869C96.7077 40.179 96.8176 40.0923 96.9426 40.0335C97.0722 39.9758 97.2128 39.9473 97.3545 39.9498C97.4585 39.9487 97.5621 39.9624 97.6623 39.9905C97.7578 40.0207 97.8479 40.0658 97.9293 40.124C98.0244 40.1893 98.1118 40.2652 98.1896 40.3503L99.0654 39.4768C98.8537 39.2474 98.5941 39.0673 98.305 38.9495C98.0029 38.8293 97.6796 38.7715 97.3545 38.7798C97.1404 38.7787 96.927 38.8031 96.7186 38.8522C96.4992 38.9059 96.2888 38.9912 96.094 39.1056C95.8874 39.2315 95.7056 39.3941 95.5576 39.5854C95.3863 39.8125 95.2589 40.0696 95.182 40.3435C94.9919 41.0514 94.9919 41.7969 95.182 42.5048C95.2594 42.7785 95.3868 43.0355 95.5576 43.2629C95.7055 43.4556 95.8873 43.6197 96.094 43.7472C96.2877 43.8642 96.4984 43.9504 96.7186 44.0029C96.927 44.052 97.1404 44.0763 97.3545 44.0753C97.6796 44.0817 98.0028 44.0233 98.305 43.9033C98.5944 43.7766 98.8535 43.59 99.0654 43.3557H99.0518ZM93.5684 39.2505C93.4605 39.1402 93.3388 39.0443 93.2063 38.9653C93.0824 38.8936 92.948 38.8417 92.808 38.8114C92.6594 38.7791 92.5076 38.7632 92.3554 38.7639C92.1762 38.7647 91.9979 38.7906 91.8259 38.8409C91.6666 38.8884 91.5144 38.9568 91.3733 39.0445C91.2499 39.1177 91.1398 39.211 91.0474 39.3206V38.8228H89.7846V44.0006H91.0768V40.8799C91.0758 40.7347 91.1011 40.5906 91.1515 40.4544C91.1952 40.3432 91.2615 40.2423 91.3461 40.158C91.4225 40.0826 91.5134 40.0233 91.6131 39.9837C91.708 39.9452 91.8095 39.9259 91.9119 39.9271C92.005 39.9255 92.098 39.937 92.188 39.9611C92.2639 39.9861 92.3362 40.0211 92.4029 40.0652C92.4722 40.1165 92.5373 40.1733 92.5976 40.2349L93.5684 39.2505ZM85.8265 42.0929C85.8297 42.2277 85.8152 42.3624 85.7835 42.4934C85.7596 42.5908 85.7086 42.6795 85.6364 42.7492C85.571 42.8162 85.4944 42.8713 85.4101 42.9121C85.3266 42.9482 85.2381 42.9711 85.1476 42.98C85.0418 42.9936 84.9352 42.9996 84.8285 42.9981C84.6271 43.011 84.4275 42.9525 84.265 42.8329C84.2043 42.779 84.1566 42.7122 84.1252 42.6374C84.0939 42.5626 84.0798 42.4817 84.0839 42.4007C84.0798 42.3195 84.0944 42.2386 84.1266 42.164C84.1588 42.0895 84.2077 42.0233 84.2695 41.9707C84.4269 41.8588 84.6176 41.8037 84.8104 41.8145H85.8333L85.8265 42.0929ZM87.1164 44.0006V40.5925C87.1348 40.3369 87.0941 40.0804 86.9975 39.8431C86.901 39.6057 86.7512 39.3936 86.5597 39.2233C86.1863 38.9178 85.6387 38.7707 84.9122 38.7707C84.6589 38.7668 84.4058 38.7872 84.1564 38.8318C83.9464 38.8722 83.745 38.9487 83.5612 39.0581C83.3676 39.1743 83.1929 39.3193 83.0429 39.4881L83.869 40.2937C83.9467 40.2003 84.0356 40.1167 84.1337 40.0448C84.2272 39.9811 84.3315 39.9351 84.4415 39.909C84.5796 39.8777 84.7209 39.8632 84.8624 39.866C85.1239 39.842 85.3854 39.9118 85.6002 40.0629C85.682 40.1422 85.7449 40.2389 85.7841 40.3459C85.8233 40.4529 85.8378 40.5674 85.8265 40.6807V40.9387H84.6045C84.3379 40.936 84.0727 40.9766 83.8192 41.0587C83.6153 41.1258 83.4279 41.2353 83.2692 41.38C83.1258 41.5129 83.0138 41.676 82.9411 41.8575C82.8698 42.0431 82.8338 42.2403 82.8347 42.4391C82.8329 42.6588 82.8696 42.8771 82.9434 43.0841C83.0126 43.2778 83.1213 43.455 83.2625 43.6046C83.4198 43.7591 83.6102 43.8759 83.8192 43.9463C84.2354 44.0715 84.6758 44.0932 85.1023 44.0097C85.2439 43.9755 85.3797 43.9206 85.5051 43.8467C85.6326 43.7664 85.7504 43.6714 85.8559 43.5639V44.0165L87.1164 44.0006ZM79.4492 40.9297H77.4826C77.4835 40.8614 77.4896 40.7933 77.5007 40.726C77.5069 40.6668 77.519 40.6085 77.5369 40.5517C77.5528 40.4952 77.5754 40.4363 77.6003 40.3729C77.6471 40.2706 77.7115 40.1771 77.7904 40.0969C77.8723 40.0152 77.9701 39.9513 78.0778 39.909C78.3275 39.8126 78.6043 39.8126 78.854 39.909C78.9617 39.9513 79.0595 40.0152 79.1414 40.0969C79.2204 40.1771 79.2847 40.2706 79.3315 40.3729C79.3559 40.4313 79.3771 40.491 79.3949 40.5517C79.412 40.6087 79.4241 40.667 79.4311 40.726C79.4421 40.7933 79.4482 40.8614 79.4492 40.9297ZM80.721 41.8145V41.2397C80.7247 40.9049 80.6742 40.5717 80.5717 40.253C80.479 39.9646 80.3298 39.6977 80.1326 39.4677C79.9399 39.244 79.6983 39.0675 79.4266 38.9518C79.1228 38.8245 78.7963 38.7606 78.467 38.7639C78.1513 38.7608 77.8382 38.8208 77.546 38.9404C77.2732 39.0545 77.0301 39.2294 76.8354 39.4519C76.6301 39.6954 76.4761 39.9779 76.3828 40.2824C76.2691 40.6486 76.2141 41.0305 76.2198 41.414C76.2138 41.7788 76.258 42.1428 76.3511 42.4957C76.4235 42.7679 76.5447 43.0248 76.7086 43.2538C76.8546 43.4474 77.0358 43.6117 77.2427 43.7381C77.4451 43.8572 77.6651 43.9435 77.8945 43.9938C78.131 44.0443 78.3723 44.0686 78.6141 44.0663C78.8864 44.0713 79.158 44.0401 79.422 43.9735C79.6428 43.915 79.8529 43.8218 80.0444 43.6974C80.2392 43.5666 80.4191 43.4148 80.5807 43.2448L79.7955 42.4776C79.6979 42.5797 79.5893 42.6708 79.4718 42.7492C79.36 42.8229 79.237 42.8779 79.1075 42.9121C78.9496 42.9498 78.7877 42.968 78.6255 42.9664C78.4097 42.9712 78.1966 42.9189 78.0076 42.8148C77.8425 42.7193 77.7088 42.5778 77.6229 42.4074C77.5332 42.222 77.4883 42.0182 77.4917 41.8123L80.721 41.8145ZM74.0971 42.3712C74.1066 42.1793 74.0775 41.9875 74.0114 41.8071C73.9453 41.6267 73.8436 41.4615 73.7124 41.3212C73.394 41.0334 72.9847 40.8668 72.5559 40.8505L71.7412 40.7712C71.6224 40.7645 71.5061 40.7337 71.3995 40.6807C71.3325 40.642 71.2783 40.5846 71.2434 40.5155C71.2176 40.4555 71.2045 40.3908 71.2049 40.3254C71.2039 40.2379 71.2308 40.1522 71.2818 40.081C71.3422 39.9983 71.4256 39.9353 71.5217 39.9C71.6551 39.8483 71.7974 39.8237 71.9404 39.8276C72.0918 39.8254 72.2431 39.8352 72.393 39.857C72.5348 39.8771 72.6737 39.9135 72.8071 39.9656C72.9339 40.0138 73.0505 40.0851 73.1511 40.1761L73.9477 39.3704C73.7851 39.2181 73.5976 39.0949 73.3933 39.0061C73.1813 38.9144 72.9585 38.8505 72.7302 38.816C72.4785 38.7785 72.2242 38.7611 71.9698 38.7639C71.714 38.7629 71.4595 38.7987 71.2139 38.8703C70.9842 38.9376 70.7682 39.0448 70.5758 39.1871C70.3917 39.323 70.2414 39.4996 70.1367 39.7031C70.0247 39.9363 69.9682 40.1924 69.9717 40.4511C69.9752 40.7099 70.0387 40.9643 70.1571 41.1944C70.2786 41.3996 70.4603 41.5624 70.6776 41.6606C70.9318 41.7761 71.2047 41.8451 71.4832 41.8643L72.2979 41.9435C72.453 41.9476 72.6025 42.0024 72.7234 42.0997C72.7652 42.1415 72.7975 42.1919 72.8182 42.2473C72.8389 42.3028 72.8475 42.362 72.8433 42.421C72.8455 42.5098 72.8176 42.5968 72.7641 42.6677C72.7087 42.7398 72.6364 42.7973 72.5537 42.8352C72.4609 42.8788 72.3627 42.91 72.2617 42.9279C72.152 42.948 72.0406 42.9578 71.9291 42.9574C71.7821 42.9595 71.6352 42.9489 71.49 42.9257C71.3246 42.9015 71.1632 42.8551 71.0103 42.7876C70.8416 42.7101 70.6883 42.6027 70.5576 42.4708L69.7135 43.3149C69.8642 43.4681 70.0347 43.6006 70.2205 43.7087C70.3887 43.8071 70.569 43.8831 70.7568 43.935C70.9416 43.9872 71.1311 44.0213 71.3226 44.0368C71.5211 44.0566 71.7205 44.0649 71.92 44.0617C72.209 44.0638 72.4972 44.0296 72.7777 43.9599C73.0271 43.8971 73.2638 43.7915 73.477 43.6476C73.6724 43.5111 73.8329 43.3304 73.9454 43.1203C74.0549 42.8862 74.1069 42.6294 74.0971 42.3712ZM66.4502 40.9297H64.4813C64.4813 40.855 64.4813 40.7871 64.4994 40.726C64.5078 40.6672 64.5199 40.609 64.5357 40.5517C64.5538 40.4952 64.5741 40.4363 64.6013 40.3729C64.6465 40.2702 64.7102 40.1766 64.7891 40.0969C64.8714 40.0157 64.9692 39.9518 65.0765 39.909C65.3263 39.8126 65.603 39.8126 65.8528 39.909C65.9604 39.9513 66.0582 40.0152 66.1402 40.0969C66.2198 40.1766 66.2842 40.2701 66.3303 40.3729C66.3554 40.4313 66.3773 40.491 66.3959 40.5517C66.4119 40.6089 66.424 40.6671 66.4321 40.726C66.4411 40.7871 66.4457 40.8572 66.4502 40.9297ZM67.722 41.8145V41.2397C67.7257 40.9049 67.6752 40.5717 67.5727 40.253C67.4791 39.9651 67.3299 39.6983 67.1336 39.4677C66.9396 39.2444 66.6974 39.068 66.4253 38.9518C66.1217 38.8242 65.7951 38.7603 65.4658 38.7639C65.1508 38.7608 64.8384 38.8208 64.547 38.9404C64.2732 39.0538 64.0292 39.2288 63.8341 39.4519C63.6278 39.6948 63.4738 39.9775 63.3815 40.2824C63.2668 40.6485 63.2111 41.0304 63.2163 41.414C63.211 41.779 63.2559 42.1429 63.3498 42.4957C63.4213 42.7683 63.5425 43.0253 63.7074 43.2538C63.8522 43.4485 64.0336 43.613 64.2415 43.7381C64.4437 43.8576 64.6637 43.9439 64.8932 43.9938C65.1289 44.0443 65.3695 44.0686 65.6106 44.0663C65.8828 44.0714 66.1545 44.0402 66.4185 43.9735C66.64 43.915 66.8508 43.8218 67.0431 43.6974C67.2375 43.566 67.4173 43.4143 67.5795 43.2448L66.7964 42.4799C66.6981 42.582 66.5888 42.6731 66.4706 42.7514C66.3598 42.8255 66.2374 42.8806 66.1085 42.9144C65.9498 42.952 65.7872 42.9703 65.6242 42.9687C65.4085 42.9735 65.1953 42.9212 65.0064 42.8171C64.8419 42.7215 64.7089 42.5799 64.6239 42.4097C64.5324 42.2249 64.4866 42.0207 64.4904 41.8145H67.722ZM191.572 44.0006V42.9076H191.106C191.044 42.9129 190.982 42.9049 190.924 42.8842C190.865 42.8635 190.812 42.8306 190.767 42.7876C190.687 42.6904 190.649 42.5665 190.658 42.4414V39.952H191.563V38.9676H190.658V37.4378H189.366V38.9676H188.818V39.952H189.366V42.5161C189.366 42.6998 189.395 42.8823 189.452 43.0569C189.509 43.2312 189.6 43.392 189.721 43.5299C189.849 43.6771 190.008 43.7933 190.187 43.8694C190.403 43.9581 190.634 44.0012 190.866 43.9961L191.572 44.0006ZM186.567 44.0006V40.6898C186.569 40.5086 186.556 40.3276 186.526 40.1489C186.493 39.9794 186.439 39.8151 186.363 39.6601C186.28 39.4935 186.171 39.3408 186.041 39.2075C185.891 39.0628 185.712 38.9511 185.516 38.8793C185.293 38.7971 185.057 38.7557 184.819 38.7571C184.66 38.7572 184.501 38.7778 184.346 38.8182C184.033 38.894 183.749 39.0591 183.527 39.2935V38.816H182.264V43.9938H183.557V40.8708C183.553 40.7164 183.58 40.5628 183.634 40.4182C183.677 40.3069 183.746 40.2076 183.835 40.1285C183.916 40.0558 184.012 40.0011 184.116 39.9679C184.214 39.9354 184.317 39.9193 184.421 39.9203C184.525 39.9206 184.628 39.9366 184.727 39.9679C184.834 40.0039 184.932 40.0631 185.014 40.1414C185.095 40.2196 185.159 40.3149 185.2 40.4205C185.254 40.565 185.279 40.7188 185.274 40.8731V44.0029L186.567 44.0006ZM178.512 40.9297H176.555C176.555 40.855 176.555 40.7871 176.573 40.726C176.581 40.6672 176.593 40.609 176.609 40.5517C176.627 40.4952 176.648 40.4363 176.675 40.3729C176.721 40.2701 176.785 40.1766 176.865 40.0969C176.947 40.0152 177.045 39.9513 177.152 39.909C177.275 39.8592 177.407 39.8346 177.539 39.8366C177.672 39.8342 177.803 39.8588 177.926 39.909C178.034 39.9513 178.133 40.0152 178.216 40.0969C178.295 40.1766 178.358 40.2702 178.404 40.3729C178.43 40.4309 178.452 40.4907 178.469 40.5517C178.485 40.6089 178.497 40.6671 178.506 40.726C178.512 40.7937 178.514 40.8617 178.512 40.9297ZM179.784 41.8145V41.2397C179.788 40.9049 179.737 40.5717 179.635 40.253C179.541 39.9651 179.392 39.6983 179.196 39.4677C179.002 39.245 178.761 39.0686 178.49 38.9518C178.185 38.8242 177.858 38.7603 177.528 38.7639C177.213 38.7608 176.9 38.8208 176.609 38.9404C176.336 39.055 176.092 39.2298 175.896 39.4519C175.69 39.6948 175.536 39.9775 175.444 40.2824C175.329 40.6485 175.273 41.0304 175.278 41.414C175.273 41.779 175.318 42.1429 175.412 42.4957C175.483 42.7683 175.605 43.0253 175.769 43.2538C175.914 43.4479 176.095 43.6123 176.301 43.7381C176.505 43.8569 176.725 43.9431 176.955 43.9938C177.192 44.0443 177.433 44.0686 177.675 44.0663C177.947 44.0713 178.219 44.0401 178.483 43.9735C178.704 43.915 178.914 43.8218 179.105 43.6974C179.3 43.5666 179.48 43.4148 179.642 43.2448L178.856 42.4776C178.759 42.5797 178.65 42.6708 178.533 42.7492C178.421 42.8229 178.298 42.8779 178.168 42.9121C178.01 42.9498 177.847 42.968 177.684 42.9664C177.469 42.9715 177.257 42.9192 177.068 42.8148C176.903 42.7193 176.77 42.5778 176.684 42.4074C176.596 42.2246 176.552 42.024 176.555 41.8213L179.784 41.8145ZM61.7521 39.2505C61.6437 39.1407 61.5221 39.0449 61.39 38.9653C61.2659 38.8939 61.1316 38.842 60.9917 38.8114C60.843 38.7791 60.6912 38.7632 60.5391 38.7639C60.1932 38.763 59.8542 38.8603 59.5614 39.0445C59.4392 39.1183 59.3299 39.2116 59.2378 39.3206V38.8228H57.9705V44.0006H59.2627V40.8799C59.2599 40.7383 59.2821 40.5973 59.3284 40.4635C59.3713 40.3524 59.4368 40.2515 59.5207 40.167C59.5979 40.0915 59.6895 40.0323 59.79 39.9928C59.8848 39.954 59.9864 39.9348 60.0887 39.9362C60.1812 39.9346 60.2733 39.946 60.3626 39.9701C60.4426 39.9939 60.5188 40.0289 60.5889 40.0742C60.6577 40.1262 60.7227 40.1829 60.7835 40.244L61.7521 39.2505ZM66.251 17.6994H54.4831V29.4673H66.251V17.6994ZM196.504 17.8329H208.161V29.4741H196.504V17.8329ZM190.457 35.3625H208.161V38.3407H196.431V44.1953H214.049V11.7588H190.457V35.3625ZM226.464 35.5594V11.8109H250V17.6948H232.348V29.4627H250V35.3467L226.464 35.5594ZM223.095 2.94424H217.211V8.82819H223.095V2.94424ZM223.095 35.3354H217.211V11.7996H223.095V35.3354ZM181.201 17.6722H169.456V29.4741H181.201V17.6722ZM163.567 11.8109H187.103V35.3625H163.655V11.8109H163.567ZM154.492 35.3467H160.376V0H154.492V35.3467ZM145.702 16.991H133.919V21.3384H145.702V16.991ZM128.03 35.3648V11.7588H151.591V26.566H133.919V29.4741H145.635V35.358L128.03 35.3648ZM107.995 35.3467L102.111 35.3987V11.8267H125.668V17.6994H107.995V35.3467ZM75.2965 35.3987V11.7588H81.1804V29.4741H92.9846V11.8222H98.8685V35.358L75.2965 35.3987ZM54.4764 44.1975H48.5924V11.8358H72.1373V35.3965H54.4854L54.4764 44.1975Z" fill="#3C3C3B"/>
</svg>
