<svg width="36" height="37" viewBox="0 0 36 37" fill="none" xmlns="http://www.w3.org/2000/svg">
<path d="M13.7496 36.4001C14.6657 36.4001 15.5613 36.1273 16.323 35.6162C17.0847 35.1051 17.6784 34.3787 18.029 33.5288C18.3795 32.6789 18.4713 31.7438 18.2925 30.8415C18.1138 29.9393 17.6727 29.1105 17.0249 28.4601C16.3771 27.8096 15.5518 27.3666 14.6533 27.1872C13.7547 27.0077 12.8234 27.0998 11.977 27.4518C11.1307 27.8039 10.4073 28.4 9.8983 29.1649C9.38933 29.9298 9.11768 30.829 9.11768 31.7489C9.11988 32.9818 9.6086 34.1635 10.4768 35.0353C11.345 35.9071 12.5218 36.3978 13.7496 36.4001ZM13.7496 30.4458C14.0055 30.4458 14.2556 30.5219 14.4683 30.6647C14.681 30.8074 14.8468 31.0103 14.9447 31.2476C15.0427 31.485 15.0683 31.7462 15.0184 31.9981C14.9684 32.2501 14.8452 32.4816 14.6643 32.6632C14.4834 32.8449 14.2529 32.9686 14.002 33.0187C13.751 33.0689 13.4909 33.0431 13.2546 32.9448C13.0182 32.8465 12.8162 32.68 12.674 32.4664C12.5319 32.2528 12.456 32.0016 12.456 31.7447C12.4571 31.4006 12.5937 31.0708 12.8361 30.8274C13.0785 30.5841 13.4069 30.4469 13.7496 30.4458Z" fill="#3C3C3B"/>
<path d="M33.4963 31.7489C33.4963 30.829 33.2246 29.9298 32.7157 29.1649C32.2067 28.4 31.4833 27.8039 30.6369 27.4518C29.7905 27.0998 28.8592 27.0077 27.9607 27.1872C27.0622 27.3666 26.2369 27.8096 25.5891 28.4601C24.9413 29.1105 24.5001 29.9393 24.3214 30.8415C24.1427 31.7438 24.2344 32.6789 24.585 33.5288C24.9356 34.3787 25.5293 35.1051 26.291 35.6162C27.0527 36.1273 27.9482 36.4001 28.8644 36.4001C30.0921 36.3978 31.269 35.9071 32.1372 35.0353C33.0054 34.1635 33.4941 32.9818 33.4963 31.7489ZM27.5666 31.7489C27.5666 31.492 27.6424 31.2409 27.7846 31.0273C27.9267 30.8136 28.1288 30.6471 28.3651 30.5488C28.6015 30.4505 28.8616 30.4248 29.1126 30.4749C29.3635 30.525 29.594 30.6487 29.7749 30.8304C29.9558 31.0121 30.079 31.2435 30.1289 31.4955C30.1788 31.7475 30.1532 32.0087 30.0553 32.246C29.9574 32.4834 29.7916 32.6862 29.5789 32.829C29.3661 32.9717 29.116 33.0479 28.8602 33.0479C28.5203 33.0424 28.1962 32.9033 27.9574 32.6604C27.7187 32.4175 27.5843 32.0902 27.5833 31.7489H27.5666Z" fill="#3C3C3B"/>
<path d="M7.65483 0.953369H0.302246V4.87012H4.51974L9.11755 25.9814H34.3348L35.4854 9.06594H9.42959L7.65483 0.953369ZM31.3118 12.9827L30.6926 22.0646H12.2721L10.2828 12.9827H31.3118Z" fill="#3C3C3B"/>
</svg>
