<svg width="43" height="43" viewBox="0 0 43 43" fill="none" xmlns="http://www.w3.org/2000/svg">
<path fill-rule="evenodd" clip-rule="evenodd" d="M9.73376 4.96468C9.73376 5.91309 9.45405 6.84021 8.93 7.62878C8.40595 8.41736 7.6611 9.03198 6.78964 9.39492C5.91818 9.75786 4.95925 9.85283 4.03411 9.6678C3.10897 9.48277 2.25918 9.02607 1.59219 8.35544C0.9252 7.68482 0.470976 6.83038 0.286955 5.9002C0.102933 4.97001 0.197379 4.00584 0.55835 3.12962C0.919321 2.25341 1.5306 1.50449 2.3149 0.977581C3.09919 0.450672 4.02127 0.169434 4.96453 0.169434C6.22941 0.169434 7.44249 0.674645 8.33689 1.57393C9.23129 2.47321 9.73376 3.6929 9.73376 4.96468ZM9.73376 21.2681C9.73376 22.2166 9.45399 23.1438 8.92986 23.9324C8.40572 24.7211 7.66074 25.3357 6.78916 25.6986C5.91758 26.0614 4.95855 26.1563 4.03336 25.9711C3.10816 25.7859 2.25837 25.329 1.59146 24.6582C0.924558 23.9873 0.470496 23.1327 0.286705 22.2024C0.102915 21.2721 0.197652 20.3078 0.558936 19.4316C0.920221 18.5555 1.53182 17.8067 2.31639 17.28C3.10095 16.7534 4.02323 16.4725 4.96658 16.4729C6.23094 16.474 7.44317 16.9796 8.33701 17.8787C9.23086 18.7778 9.73322 19.9969 9.73376 21.2681ZM25.9507 4.96468C25.9507 5.91309 25.671 6.84021 25.147 7.62878C24.6229 8.41736 23.8781 9.03198 23.0066 9.39492C22.1352 9.75786 21.1762 9.85283 20.2511 9.6678C19.326 9.48277 18.4762 9.02607 17.8092 8.35544C17.1422 7.68482 16.688 6.83038 16.5039 5.9002C16.3199 4.97001 16.4144 4.00584 16.7753 3.12962C17.1363 2.25341 17.7476 1.50449 18.5319 0.977581C19.3162 0.450672 20.2383 0.169434 21.1815 0.169434C22.4462 0.169978 23.659 0.675365 24.5533 1.57453C25.4476 2.4737 25.9502 3.69307 25.9507 4.96468ZM42.1003 4.96468C42.1003 5.91274 41.8208 6.83953 41.2971 7.62793C40.7734 8.41633 40.029 9.03095 39.158 9.39413C38.287 9.75731 37.3285 9.85275 36.4036 9.66839C35.4787 9.48403 34.6289 9.02814 33.9616 8.35834C33.2943 7.68853 32.8394 6.83487 32.6545 5.90522C32.4695 4.97557 32.5628 4.01167 32.9225 3.13531C33.2822 2.25895 33.8922 1.50947 34.6755 0.981571C35.4587 0.453674 36.38 0.171059 37.3229 0.169434C38.5877 0.169434 39.8008 0.674645 40.6952 1.57393C41.5896 2.47321 42.0921 3.6929 42.0921 4.96468H42.1003ZM9.73376 37.5777C9.73376 38.5262 9.45399 39.4534 8.92986 40.2421C8.40572 41.0307 7.66074 41.6453 6.78916 42.0082C5.91758 42.3711 4.95855 42.4659 4.03336 42.2807C3.10816 42.0955 2.25837 41.6386 1.59146 40.9678C0.924558 40.2969 0.470496 39.4423 0.286705 38.512C0.102915 37.5817 0.197652 36.6174 0.558936 35.7413C0.920221 34.8651 1.53182 34.1163 2.31639 33.5896C3.10095 33.063 4.02323 32.7821 4.96658 32.7825C6.23094 32.7836 7.44317 33.2892 8.33701 34.1883C9.23086 35.0874 9.73322 36.3065 9.73376 37.5777Z" fill="#A0BE2D"/>
</svg>
