<svg width="43" height="43" viewBox="0 0 43 43" fill="none" xmlns="http://www.w3.org/2000/svg">
<path fill-rule="evenodd" clip-rule="evenodd" d="M32.4967 37.9401C32.4967 36.9917 32.7764 36.0646 33.3005 35.276C33.8245 34.4874 34.5694 33.8728 35.4408 33.5099C36.3123 33.1469 37.2712 33.052 38.1964 33.237C39.1215 33.422 39.9713 33.8787 40.6383 34.5493C41.3053 35.22 41.7595 36.0744 41.9435 37.0046C42.1275 37.9348 42.0331 38.8989 41.6721 39.7752C41.3111 40.6514 40.6999 41.4003 39.9156 41.9272C39.1313 42.4541 38.2092 42.7354 37.2659 42.7354C36.0011 42.7354 34.788 42.2301 33.8936 41.3309C32.9992 40.4316 32.4967 39.2119 32.4967 37.9401ZM32.4967 21.6367C32.4967 20.6882 32.7765 19.761 33.3006 18.9723C33.8248 18.1837 34.5697 17.5691 35.4413 17.2062C36.3129 16.8433 37.2719 16.7485 38.1971 16.9337C39.1223 17.1189 39.9721 17.5758 40.639 18.2466C41.3059 18.9175 41.76 19.7721 41.9438 20.7024C42.1276 21.6327 42.0328 22.597 41.6715 23.4732C41.3102 24.3493 40.6986 25.0981 39.9141 25.6248C39.1295 26.1514 38.2072 26.4323 37.2639 26.4319C35.9995 26.4308 34.7873 25.9252 33.8935 25.0261C32.9996 24.127 32.4973 22.9079 32.4967 21.6367ZM16.2797 37.9401C16.2797 36.9917 16.5594 36.0646 17.0835 35.276C17.6075 34.4874 18.3524 33.8728 19.2238 33.5099C20.0953 33.1469 21.0542 33.052 21.9794 33.237C22.9045 33.422 23.7543 33.8787 24.4213 34.5493C25.0883 35.22 25.5425 36.0744 25.7265 37.0046C25.9105 37.9348 25.8161 38.8989 25.4551 39.7752C25.0942 40.6514 24.4829 41.4003 23.6986 41.9272C22.9143 42.4541 21.9922 42.7353 21.0489 42.7353C19.7842 42.7348 18.5715 42.2294 17.6772 41.3303C16.7829 40.4311 16.2803 39.2117 16.2797 37.9401ZM0.130207 37.9401C0.130211 36.992 0.409707 36.0653 0.933396 35.2769C1.45708 34.4885 2.20145 33.8738 3.07244 33.5107C3.94343 33.1475 4.90194 33.052 5.82685 33.2364C6.75177 33.4208 7.60158 33.8766 8.26889 34.5465C8.9362 35.2163 9.39107 36.0699 9.57601 36.9996C9.76096 37.9292 9.66767 38.8931 9.30795 39.7695C8.94824 40.6458 8.33823 41.3953 7.55502 41.9232C6.7718 42.4511 5.85051 42.7337 4.9076 42.7353C3.64273 42.7353 2.42965 42.2301 1.53525 41.3309C0.640846 40.4316 0.138378 39.2119 0.138379 37.9401L0.130207 37.9401ZM32.4967 5.32705C32.4967 4.37855 32.7765 3.45136 33.3006 2.66274C33.8248 1.87412 34.5697 1.25951 35.4413 0.896625C36.3129 0.533744 37.2719 0.438903 38.1971 0.624096C39.1223 0.809288 39.9721 1.2662 40.639 1.93703C41.3059 2.60786 41.76 3.46249 41.9438 4.39281C42.1276 5.32313 42.0328 6.28736 41.6715 7.16354C41.3103 8.03972 40.6986 8.78849 39.9141 9.31516C39.1295 9.84182 38.2072 10.1227 37.2639 10.1223C35.9995 10.1212 34.7873 9.61559 33.8935 8.71648C32.9996 7.81737 32.4973 6.59831 32.4967 5.32705Z" fill="#3C3C3B"/>
</svg>
