<svg width="28" height="31" viewBox="0 0 28 31" fill="none" xmlns="http://www.w3.org/2000/svg">
<path d="M27.6688 7.15864H23.4131C23.986 6.41179 24.3256 5.48742 24.3256 4.48755C24.3256 2.01312 22.2476 0 19.6934 0H19.6069C17.7525 0 16.0817 1.06665 15.3502 2.71734L13.9999 5.76455L12.6496 2.71734C11.9182 1.06665 10.2474 0 8.39299 0H8.30649C5.75224 0 3.67424 2.01312 3.67424 4.48755C3.67424 5.48748 4.01387 6.41179 4.5868 7.15864H0.331055V14.381H1.9018V31H26.0981V14.381H27.6688V7.15864ZM3.7768 29.1836V14.381H24.2231V29.1836H3.7768ZM5.54918 4.48755C5.54918 3.01469 6.78605 1.81641 8.30643 1.81641H8.39293C9.49674 1.81641 10.4912 2.4513 10.9266 3.43386L12.5772 7.15864H8.30637C6.78612 7.15864 5.54918 5.96036 5.54918 4.48755ZM19.6069 1.81641H19.6934C21.2137 1.81641 22.4506 3.01469 22.4506 4.48755C22.4506 5.96042 21.2137 7.15864 19.6934 7.15864H15.4226L17.0732 3.43386C17.5086 2.4513 18.5031 1.81641 19.6069 1.81641ZM16.3957 12.5646H11.6041V8.97505H16.3957V12.5646ZM2.20605 8.97505H9.72912V12.5646H2.20605V8.97505ZM25.7938 12.5646H18.2707V8.97505H25.7938V12.5646Z" fill="#95B03C"/>
<path d="M15.8998 17.5942L10.0211 25.9342H12.0996L17.9783 17.5942H15.8998Z" fill="#95B03C"/>
<path d="M17.1544 21.4067C15.8508 21.4067 14.8668 22.2526 14.8668 23.73C14.8668 25.2193 15.8507 26.0533 17.1544 26.0533C18.458 26.0533 19.4419 25.2194 19.4419 23.73C19.4419 22.2527 18.458 21.4067 17.1544 21.4067ZM17.1544 24.7666C16.8838 24.7666 16.6133 24.5283 16.6133 23.73C16.6133 22.9318 16.8838 22.6935 17.1544 22.6935C17.4249 22.6935 17.6955 22.9318 17.6955 23.73C17.6955 24.5283 17.4249 24.7666 17.1544 24.7666Z" fill="#95B03C"/>
<path d="M13.1327 19.7984C13.1327 18.3211 12.1489 17.4751 10.8452 17.4751C9.54149 17.4751 8.55762 18.321 8.55762 19.7984C8.55762 21.2877 9.54149 22.1217 10.8452 22.1217C12.1489 22.1217 13.1327 21.2877 13.1327 19.7984ZM10.3041 19.7984C10.3041 19.0002 10.5746 18.7618 10.8452 18.7618C11.1157 18.7618 11.3863 19.0001 11.3863 19.7984C11.3863 20.5967 11.1157 20.835 10.8452 20.835C10.5746 20.835 10.3041 20.5967 10.3041 19.7984Z" fill="#95B03C"/>
</svg>
